<?xml version="1.0" encoding="UTF-8" standalone="no"?>
<!-- Creator: CorelDRAW -->

<svg
   xmlns:dc="http://purl.org/dc/elements/1.1/"
   xmlns:cc="http://creativecommons.org/ns#"
   xmlns:rdf="http://www.w3.org/1999/02/22-rdf-syntax-ns#"
   xmlns:svg="http://www.w3.org/2000/svg"
   xmlns="http://www.w3.org/2000/svg"
   xmlns:sodipodi="http://sodipodi.sourceforge.net/DTD/sodipodi-0.dtd"
   xmlns:inkscape="http://www.inkscape.org/namespaces/inkscape"
   xml:space="preserve"
   width="261.27658"
   height="280"
   style="clip-rule:evenodd;fill-rule:evenodd;image-rendering:optimizeQuality;shape-rendering:geometricPrecision;text-rendering:geometricPrecision"
   viewBox="0 0 187.71222 201.16393"
   version="1.1"
   id="svg206"
   sodipodi:docname="daoshu.svg"
   inkscape:version="0.92.3 (d244b95, 2018-08-02)"><metadata
   id="metadata210"><rdf:RDF><cc:Work
       rdf:about=""><dc:format>image/svg+xml</dc:format><dc:type
         rdf:resource="http://purl.org/dc/dcmitype/StillImage" /><dc:title></dc:title></cc:Work></rdf:RDF></metadata><sodipodi:namedview
   pagecolor="#ffffff"
   bordercolor="#666666"
   borderopacity="1"
   objecttolerance="10"
   gridtolerance="10"
   guidetolerance="10"
   inkscape:pageopacity="0"
   inkscape:pageshadow="2"
   inkscape:window-width="2190"
   inkscape:window-height="1053"
   id="namedview208"
   showgrid="false"
   fit-margin-top="12"
   fit-margin-left="12"
   fit-margin-right="12"
   fit-margin-bottom="12"
   inkscape:zoom="1.7878788"
   inkscape:cx="147.28471"
   inkscape:cy="200.63052"
   inkscape:window-x="35"
   inkscape:window-y="33"
   inkscape:window-maximized="0"
   inkscape:current-layer="svg206"
   inkscape:pagecheckerboard="true" />
 <defs
   id="defs4">
  <style
   type="text/css"
   id="style2">
   <![CDATA[
    .fil0 {fill:black}
    .fil30 {fill:#050505}
    .fil31 {fill:#070707}
    .fil1 {fill:#0A0A0A}
    .fil32 {fill:#0C0C0C}
    .fil21 {fill:#0F0F0F}
    .fil2 {fill:#141414}
    .fil33 {fill:#161616}
    .fil3 {fill:#1C1C1C}
    .fil20 {fill:#212121}
    .fil34 {fill:#232323}
    .fil4 {fill:#262626}
    .fil35 {fill:#282828}
    .fil36 {fill:#2B2B2B}
    .fil5 {fill:#303030}
    .fil37 {fill:#333333}
    .fil38 {fill:#383838}
    .fil6 {fill:#3A3A3A}
    .fil39 {fill:#3D3D3D}
    .fil19 {fill:#3F3F3F}
    .fil7 {fill:#444444}
    .fil8 {fill:#4F4F4F}
    .fil9 {fill:#595959}
    .fil10 {fill:#606060}
    .fil11 {fill:#6B6B6B}
    .fil18 {fill:#707070}
    .fil12 {fill:#757575}
    .fil13 {fill:#7F7F7F}
    .fil27 {fill:#898989}
    .fil17 {fill:#8E8E8E}
    .fil26 {fill:#919191}
    .fil29 {fill:#939393}
    .fil25 {fill:#9B9B9B}
    .fil16 {fill:#9E9E9E}
    .fil41 {fill:#A0A0A0}
    .fil24 {fill:#A3A3A3}
    .fil28 {fill:#AAAAAA}
    .fil23 {fill:#ADADAD}
    .fil15 {fill:#AFAFAF}
    .fil22 {fill:#B5B5B5}
    .fil14 {fill:#BFBFBF}
    .fil46 {fill:#C4C4C4}
    .fil40 {fill:#CECECE}
    .fil44 {fill:lightgrey}
    .fil45 {fill:#D8D8D8}
    .fil42 {fill:#EAEAEA}
    .fil43 {fill:white}
   ]]>
  </style>
 
  
  
 
   
   
   
   
   
   
   
   
   
   
   
   
   
   
   
   
   
   
   
   
   
   
   
   
   
   
   
   
   
   
   
   
   
   
   
   
   
   
   
   
   
   
   
   
   
   
   
   
   
   
   
   
   
   
   
   
   
   
   
   
   
   
   
   
   
   
   
   
   
   
   
   
   
   
   
   
   
   
   
   
   
   
   
   
   
   
   
   
   
   
   
   
   
   
   
   
   
   
   
   
   
   
   
   
   
   
   
   
   
   
   
   
   
   
   
   
   
   
   
   
   
   
   
   
   
   
   
   
   
   
   
   
   
   
   
   
   
   
   
   
   
   
   
   
   
   
   
   
   
   
   
   
   
   
   
   
   
   
   
   
   
   
   
   
   
   
   
   
   
   
   
   
   
   
   
   
   
   
   
   
   
   
   
   
   
   
   
   
   
   
   
   
   
   
   
   
   
  </defs>
 <g
   id="g5272"
   transform="translate(8.6213109,8.6213009)"><polygon
     transform="translate(-24.5624,-68.29769)"
     style="fill:#7f7f7f"
     points="100.75,73.5356 100.75,84.1304 117.059,84.1304 117.059,73.5356 "
     class="fil13"
     id="_149364904" /><polygon
     transform="translate(-24.5624,-68.29769)"
     style="fill:#bfbfbf"
     points="105.75,68.2977 105.75,82.821 107.416,82.821 107.416,68.2977 "
     class="fil14"
     id="_149365048" /><polygon
     transform="translate(-24.5624,-68.29769)"
     style="fill:#afafaf"
     points="106.702,68.2977 106.702,82.821 108.25,82.821 108.25,68.2977 "
     class="fil15"
     id="_149365144" /><polygon
     transform="translate(-24.5624,-68.29769)"
     style="fill:#9e9e9e"
     points="107.654,68.2977 107.654,82.821 109.202,82.821 109.202,68.2977 "
     class="fil16"
     id="_149365240" /><polygon
     transform="translate(-24.5624,-68.29769)"
     style="fill:#8e8e8e"
     points="108.488,68.2977 108.488,82.821 110.154,82.821 110.154,68.2977 "
     class="fil17"
     id="_149365336" /><polygon
     transform="translate(-24.5624,-68.29769)"
     style="fill:#7f7f7f"
     points="109.44,68.2977 109.44,82.821 111.107,82.821 111.107,68.2977 "
     class="fil13"
     id="_149365432" /><polygon
     transform="translate(-24.5624,-68.29769)"
     style="fill:#707070"
     points="110.392,68.2977 110.392,82.821 112.059,82.821 112.059,68.2977 "
     class="fil18"
     id="_149365504" /><polygon
     transform="translate(-24.5624,-68.29769)"
     style="fill:#606060"
     points="111.345,68.2977 111.345,82.821 113.011,82.821 113.011,68.2977 "
     class="fil10"
     id="_149365600" /><polygon
     transform="translate(-24.5624,-68.29769)"
     style="fill:#4f4f4f"
     points="112.297,68.2977 112.297,82.821 113.845,82.821 113.845,68.2977 "
     class="fil8"
     id="_149365672" /><polygon
     transform="translate(-24.5624,-68.29769)"
     style="fill:#3f3f3f"
     points="113.249,68.2977 113.249,82.821 114.797,82.821 114.797,68.2977 "
     class="fil19"
     id="_149365744" /><polygon
     transform="translate(-24.5624,-68.29769)"
     style="fill:#303030"
     points="114.083,68.2977 114.083,82.821 115.749,82.821 115.749,68.2977 "
     class="fil5"
     id="_149365840" /><polygon
     transform="translate(-24.5624,-68.29769)"
     style="fill:#212121"
     points="115.035,68.2977 115.035,82.821 116.702,82.821 116.702,68.2977 "
     class="fil20"
     id="_149365912" /><polygon
     transform="translate(-24.5624,-68.29769)"
     style="fill:#0f0f0f"
     points="115.987,68.2977 115.987,82.821 117.654,82.821 117.654,68.2977 "
     class="fil21"
     id="_149366008" /><polygon
     transform="translate(-24.5624,-68.29769)"
     style="fill:#000000"
     points="116.94,68.2977 116.94,82.821 118.606,82.821 118.606,68.2977 "
     class="fil0"
     id="_149366104" /><polygon
     transform="translate(-24.5624,-68.29769)"
     style="fill:#b5b5b5"
     points="104.321,68.2977 104.321,82.821 105.988,82.821 105.988,68.2977 "
     class="fil22"
     id="_149366176" /><polygon
     transform="translate(-24.5624,-68.29769)"
     style="fill:#adadad"
     points="103.607,68.2977 103.607,82.821 105.154,82.821 105.154,68.2977 "
     class="fil23"
     id="_149366272" /><polygon
     transform="translate(-24.5624,-68.29769)"
     style="fill:#a3a3a3"
     points="102.893,68.2977 102.893,82.821 104.44,82.821 104.44,68.2977 "
     class="fil24"
     id="_149440632" /><polygon
     transform="translate(-24.5624,-68.29769)"
     style="fill:#9b9b9b"
     points="102.178,68.2977 102.178,82.821 103.726,82.821 103.726,68.2977 "
     class="fil25"
     id="_149440728" /><polygon
     transform="translate(-24.5624,-68.29769)"
     style="fill:#919191"
     points="101.464,68.2977 101.464,82.821 103.012,82.821 103.012,68.2977 "
     class="fil26"
     id="_149440824" /><polygon
     transform="translate(-24.5624,-68.29769)"
     style="fill:#898989"
     points="100.75,68.2977 100.75,82.821 102.297,82.821 102.297,68.2977 "
     class="fil27"
     id="_149440920" /><polygon
     transform="translate(-24.5624,-68.29769)"
     style="fill:#7f7f7f"
     points="100.036,68.2977 100.036,82.821 101.583,82.821 101.583,68.2977 "
     class="fil13"
     id="_149441016" /><polygon
     transform="translate(-24.5624,-68.29769)"
     style="fill:#3f3f3f"
     points="60.9895,74.9641 59.561,75.7974 58.1325,76.6307 56.9421,77.5831 55.8707,78.5354 55.0374,79.4878 54.4422,80.4401 54.2041,81.3924 72.6557,72.4642 71.7034,72.2261 70.751,72.2261 69.4416,72.2261 68.2511,72.4642 66.8226,72.8214 65.3941,73.1785 63.9656,73.6547 62.6561,74.2499 "
     class="fil19"
     id="_149441088" /><polygon
     transform="translate(-24.5624,-68.29769)"
     style="fill:#7f7f7f"
     points="65.6322,100.32 59.6801,88.0589 74.5604,80.7972 80.5126,93.0587 "
     class="fil13"
     id="_149441160" /><polygon
     transform="translate(-24.5624,-68.29769)"
     style="fill:#bfbfbf"
     points="61.8228,90.0826 66.3465,99.3679 67.1798,99.0108 62.5371,89.6064 "
     class="fil14"
     id="_149441232" /><polygon
     transform="translate(-24.5624,-68.29769)"
     style="fill:#3f3f3f"
     points="60.6324,90.2016 61.7038,92.4634 77.1794,86.3922 75.5128,83.059 "
     class="fil19"
     id="_149441304" /><polygon
     transform="translate(-24.5624,-68.29769)"
     style="fill:#bfbfbf"
     points="57.5373,79.7258 62.0609,88.8922 63.7275,88.0589 59.2039,78.8925 "
     class="fil14"
     id="_149441376" /><polygon
     transform="translate(-24.5624,-68.29769)"
     style="fill:#aaaaaa"
     points="56.4659,80.202 60.9895,89.4874 62.6561,88.6541 58.1325,79.3687 "
     class="fil28"
     id="_149441448" /><polygon
     transform="translate(-24.5624,-68.29769)"
     style="fill:#939393"
     points="55.5136,80.6782 59.9181,89.9635 61.7038,89.1302 57.1802,79.8449 "
     class="fil29"
     id="_149441544" /><polygon
     transform="translate(-24.5624,-68.29769)"
     style="fill:#7f7f7f"
     points="53.966,81.3924 58.4896,90.6778 60.6324,89.6064 56.1088,80.3211 "
     class="fil13"
     id="_149441640" /><polygon
     transform="translate(-24.5624,-68.29769)"
     style="fill:#afafaf"
     points="58.6087,79.1306 63.1323,88.416 64.7989,87.5827 60.2753,78.2973 "
     class="fil15"
     id="_149441712" /><polygon
     transform="translate(-24.5624,-68.29769)"
     style="fill:#9e9e9e"
     points="59.7991,78.5354 64.3227,87.8208 65.9893,86.9875 61.4657,77.7021 "
     class="fil16"
     id="_149441784" /><polygon
     transform="translate(-24.5624,-68.29769)"
     style="fill:#8e8e8e"
     points="60.8705,78.0592 65.3941,87.3446 67.0607,86.5113 62.5371,77.2259 "
     class="fil17"
     id="_149441856" /><polygon
     transform="translate(-24.5624,-68.29769)"
     style="fill:#7f7f7f"
     points="62.0609,77.464 66.5845,86.7494 68.2511,85.9161 63.7275,76.6307 "
     class="fil13"
     id="_149441928" /><polygon
     transform="translate(-24.5624,-68.29769)"
     style="fill:#707070"
     points="63.1323,76.9879 67.6559,86.1542 69.3225,85.3209 64.7989,76.1546 "
     class="fil18"
     id="_149442000" /><polygon
     transform="translate(-24.5624,-68.29769)"
     style="fill:#606060"
     points="64.2037,76.3926 68.7273,85.678 70.3939,84.8447 65.8703,75.5593 "
     class="fil10"
     id="_149442072" /><polygon
     transform="translate(-24.5624,-68.29769)"
     style="fill:#4f4f4f"
     points="65.3941,75.7974 69.9177,85.0828 71.5843,84.2495 67.0607,74.9641 "
     class="fil8"
     id="_149442144" /><polygon
     transform="translate(-24.5624,-68.29769)"
     style="fill:#3f3f3f"
     points="66.4655,75.3213 70.9891,84.6066 72.6557,83.7733 68.1321,74.488 "
     class="fil19"
     id="_149442216" /><polygon
     transform="translate(-24.5624,-68.29769)"
     style="fill:#303030"
     points="67.6559,74.726 72.1796,84.0114 73.8462,83.1781 69.3225,73.8927 "
     class="fil5"
     id="_149442288" /><polygon
     transform="translate(-24.5624,-68.29769)"
     style="fill:#212121"
     points="68.7273,74.2499 73.2509,83.4162 74.9175,82.7019 70.3939,73.4166 "
     class="fil20"
     id="_149442360" /><polygon
     transform="translate(-24.5624,-68.29769)"
     style="fill:#0f0f0f"
     points="69.9177,73.6547 74.3223,82.94 76.108,82.1067 71.5843,72.8214 "
     class="fil21"
     id="_149442432" /><polygon
     transform="translate(-24.5624,-68.29769)"
     style="fill:#000000"
     points="70.9891,73.0594 75.5128,82.3448 77.1794,81.5115 72.6557,72.2261 "
     class="fil0"
     id="_149442504" /><polygon
     transform="translate(-24.5624,-68.29769)"
     style="fill:#7f7f7f"
     points="63.6085,91.7492 62.5371,89.6064 61.8228,90.0826 62.7752,91.9873 "
     class="fil13"
     id="_149442576" /><polygon
     transform="translate(-24.5624,-68.29769)"
     style="fill:#7f7f7f"
     points="60.9895,75.6784 60.7514,76.0355 60.7514,76.2736 60.9895,76.3926 61.3467,76.3926 61.8228,76.3926 62.299,76.2736 62.7752,76.0355 63.2513,75.7974 63.4894,75.5593 63.4894,75.3213 63.2513,75.2022 62.8942,75.0832 62.418,75.0832 61.9419,75.2022 61.4657,75.4403 "
     class="fil13"
     id="_149442648" /><polygon
     transform="translate(-24.5624,-68.29769)"
     style="fill:#3f3f3f"
     points="158.01,74.9641 159.438,75.7974 160.867,76.6307 162.057,77.5831 163.128,78.5354 163.843,79.4878 164.438,80.4401 164.795,81.3924 146.224,72.4642 147.177,72.2261 148.248,72.2261 149.438,72.2261 150.748,72.4642 152.176,72.8214 153.605,73.1785 155.033,73.6547 156.343,74.2499 "
     class="fil19"
     id="_149442720" /><polygon
     transform="translate(-24.5624,-68.29769)"
     style="fill:#7f7f7f"
     points="153.367,100.32 159.319,88.0589 144.439,80.7972 138.486,93.0587 "
     class="fil13"
     id="_149442792" /><polygon
     transform="translate(-24.5624,-68.29769)"
     style="fill:#bfbfbf"
     points="157.176,90.0826 152.653,99.3679 151.819,99.0108 156.343,89.6064 "
     class="fil14"
     id="_149442864" /><polygon
     transform="translate(-24.5624,-68.29769)"
     style="fill:#3f3f3f"
     points="158.248,90.2016 157.176,92.4634 141.82,86.3922 143.486,83.059 "
     class="fil19"
     id="_149442936" /><polygon
     transform="translate(-24.5624,-68.29769)"
     style="fill:#bfbfbf"
     points="161.462,79.7258 156.938,88.8922 155.272,88.0589 159.795,78.8925 "
     class="fil14"
     id="_149443008" /><polygon
     transform="translate(-24.5624,-68.29769)"
     style="fill:#aaaaaa"
     points="162.414,80.202 158.01,89.4874 156.224,88.6541 160.748,79.3687 "
     class="fil28"
     id="_149443080" /><polygon
     transform="translate(-24.5624,-68.29769)"
     style="fill:#939393"
     points="163.486,80.6782 158.962,89.9635 157.295,89.1302 161.819,79.8449 "
     class="fil29"
     id="_149443152" /><polygon
     transform="translate(-24.5624,-68.29769)"
     style="fill:#7f7f7f"
     points="164.914,81.3924 160.39,90.6778 158.367,89.6064 162.89,80.3211 "
     class="fil13"
     id="_149443224" /><polygon
     transform="translate(-24.5624,-68.29769)"
     style="fill:#afafaf"
     points="160.271,79.1306 155.748,88.416 154.081,87.5827 158.605,78.2973 "
     class="fil15"
     id="_149443296" /><polygon
     transform="translate(-24.5624,-68.29769)"
     style="fill:#9e9e9e"
     points="159.2,78.5354 154.676,87.8208 153.01,86.9875 157.533,77.7021 "
     class="fil16"
     id="_149443368" /><polygon
     transform="translate(-24.5624,-68.29769)"
     style="fill:#8e8e8e"
     points="158.129,78.0592 153.605,87.3446 151.819,86.5113 156.343,77.2259 "
     class="fil17"
     id="_149443440" /><polygon
     transform="translate(-24.5624,-68.29769)"
     style="fill:#7f7f7f"
     points="156.938,77.464 152.415,86.7494 150.748,85.9161 155.272,76.6307 "
     class="fil13"
     id="_149443512" /><polygon
     transform="translate(-24.5624,-68.29769)"
     style="fill:#707070"
     points="155.867,76.9879 151.343,86.1542 149.677,85.3209 154.2,76.1546 "
     class="fil18"
     id="_149443584" /><polygon
     transform="translate(-24.5624,-68.29769)"
     style="fill:#606060"
     points="154.676,76.3926 150.153,85.678 148.486,84.8447 153.01,75.5593 "
     class="fil10"
     id="_149443656" /><polygon
     transform="translate(-24.5624,-68.29769)"
     style="fill:#4f4f4f"
     points="153.605,75.7974 149.081,85.0828 147.415,84.2495 151.938,74.9641 "
     class="fil8"
     id="_149443728" /><polygon
     transform="translate(-24.5624,-68.29769)"
     style="fill:#3f3f3f"
     points="152.415,75.3213 147.891,84.6066 146.224,83.7733 150.748,74.488 "
     class="fil19"
     id="_149443800" /><polygon
     transform="translate(-24.5624,-68.29769)"
     style="fill:#303030"
     points="151.343,74.726 146.82,84.0114 145.153,83.1781 149.677,73.8927 "
     class="fil5"
     id="_149443872" /><polygon
     transform="translate(-24.5624,-68.29769)"
     style="fill:#212121"
     points="150.272,74.2499 145.748,83.4162 144.082,82.7019 148.605,73.4166 "
     class="fil20"
     id="_149443944" /><polygon
     transform="translate(-24.5624,-68.29769)"
     style="fill:#0f0f0f"
     points="149.081,73.6547 144.558,82.94 142.891,82.1067 147.415,72.8214 "
     class="fil21"
     id="_149444016" /><polygon
     transform="translate(-24.5624,-68.29769)"
     style="fill:#000000"
     points="148.01,73.0594 143.486,82.3448 141.82,81.5115 146.343,72.2261 "
     class="fil0"
     id="_149444088" /><polygon
     transform="translate(-24.5624,-68.29769)"
     style="fill:#7f7f7f"
     points="155.391,91.7492 156.343,89.6064 157.176,90.0826 156.224,91.9873 "
     class="fil13"
     id="_149444160" /><polygon
     transform="translate(-24.5624,-68.29769)"
     style="fill:#7f7f7f"
     points="158.01,75.6784 158.248,76.0355 158.248,76.2736 158.01,76.3926 157.652,76.3926 157.176,76.3926 156.7,76.2736 156.105,76.0355 155.748,75.7974 155.51,75.5593 155.51,75.3213 155.629,75.2022 155.986,75.0832 156.462,75.0832 157.057,75.2022 157.533,75.4403 "
     class="fil13"
     id="_149444232" /><polygon
     transform="translate(-24.5624,-68.29769)"
     style="fill:#000000"
     points="69.2035,91.9873 65.6322,94.011 62.18,96.2728 58.8468,98.6537 55.6326,101.154 52.5375,103.892 49.5614,106.63 46.7044,109.606 44.0854,112.701 41.4665,115.915 39.0856,119.367 36.9429,122.819 34.8001,126.391 33.0144,130.081 31.2288,133.771 29.6812,137.7 28.3718,141.628 27.3004,145.676 26.348,149.842 25.5147,154.009 25.0386,158.294 24.6814,162.58 24.5624,166.984 24.6814,171.151 24.9195,175.436 25.5147,179.603 26.229,183.65 27.0623,187.698 28.2527,191.745 29.4432,195.674 30.9907,199.483 32.6573,203.292 34.562,206.983 36.5857,210.673 38.8475,214.125 41.2284,217.578 43.8473,220.911 46.5853,224.125 49.5614,227.22 52.6565,230.196 55.8707,232.934 59.0848,235.553 62.5371,237.934 66.1084,240.196 69.6797,242.219 73.37,244.005 77.1794,245.791 80.9887,247.219 84.9171,248.529 88.9646,249.6 93.0121,250.552 97.0595,251.267 101.226,251.862 105.512,252.1 109.678,252.219 113.964,252.1 118.13,251.862 122.416,251.267 126.463,250.552 130.511,249.6 134.558,248.529 138.486,247.219 142.415,245.791 146.224,244.005 149.915,242.219 153.486,240.196 157.057,237.934 160.509,235.553 163.724,232.934 166.938,230.196 170.033,227.22 173.009,224.125 175.747,220.911 178.366,217.578 180.747,214.125 183.009,210.673 185.032,206.983 186.818,203.292 188.604,199.483 190.032,195.674 191.342,191.745 192.413,187.698 193.365,183.65 194.08,179.603 194.675,175.436 194.913,171.151 195.032,166.984 194.913,162.699 194.675,158.532 194.08,154.366 193.365,150.199 192.413,146.152 191.342,142.223 190.032,138.176 188.604,134.367 186.818,130.557 185.032,126.867 183.009,123.177 180.747,119.724 178.366,116.272 175.747,112.939 173.009,109.725 170.033,106.63 166.938,103.654 163.724,100.916 160.509,98.2965 157.057,95.9157 153.486,93.6539 149.915,91.6301 146.224,89.8445 142.415,88.0589 138.486,86.6303 134.558,85.3209 130.511,84.2495 126.463,83.2971 122.416,82.5829 118.13,81.9877 113.964,81.7496 109.678,81.6305 105.274,81.7496 100.988,82.1067 96.7024,82.5829 92.5359,83.4162 88.4884,84.3685 84.441,85.4399 80.5126,86.8684 76.5841,88.2969 72.7748,90.0826 "
     class="fil0"
     id="_149444520" /><polygon
     transform="translate(-24.5624,-68.29769)"
     style="fill:#000000"
     points="70.0368,93.7729 66.5845,95.6776 63.2513,97.9394 59.9181,100.201 56.823,102.701 53.7279,105.32 50.8709,108.058 48.1329,111.034 45.5139,114.01 43.014,117.105 40.7522,120.439 38.4904,123.772 36.5857,127.343 34.681,130.914 33.0144,134.605 31.5859,138.414 30.2765,142.223 29.086,146.152 28.1337,150.199 27.4194,154.366 26.9433,158.532 26.5861,162.699 26.4671,166.984 26.5861,171.151 26.8242,175.198 27.4194,179.246 28.0146,183.293 28.967,187.222 30.0384,191.15 31.3478,195.078 32.7764,198.769 34.443,202.459 36.2286,206.149 38.2523,209.602 40.3951,213.054 42.776,216.387 45.2759,219.72 48.0139,222.815 50.8709,225.792 53.847,228.649 56.9421,231.387 60.2753,233.886 63.6085,236.267 67.0607,238.41 70.513,240.434 74.2033,242.338 77.8936,243.886 81.5839,245.434 85.5124,246.624 89.4408,247.695 93.3692,248.648 97.4167,249.243 101.464,249.838 105.512,250.076 109.678,250.195 113.845,250.076 118.011,249.838 122.059,249.243 126.106,248.648 130.034,247.695 133.963,246.624 137.772,245.434 141.582,243.886 145.272,242.338 148.962,240.434 152.534,238.41 155.986,236.267 159.319,233.886 162.533,231.387 165.747,228.649 168.723,225.792 171.58,222.815 174.318,219.72 176.818,216.387 179.199,213.054 181.342,209.602 183.366,206.149 185.151,202.459 186.818,198.769 188.246,195.078 189.556,191.15 190.627,187.222 191.58,183.293 192.175,179.246 192.77,175.198 193.008,171.151 193.127,166.984 193.008,162.818 192.77,158.651 192.175,154.604 191.58,150.556 190.627,146.628 189.556,142.7 188.246,138.89 186.818,135.081 185.151,131.391 183.366,127.7 181.342,124.248 179.199,120.796 176.818,117.462 174.318,114.129 171.58,111.034 168.723,108.058 165.747,105.201 162.533,102.463 159.319,99.9631 155.986,97.5823 152.534,95.4395 148.962,93.4158 145.272,91.6301 141.582,89.9635 137.772,88.535 133.963,87.2256 130.034,86.1542 126.106,85.2018 122.059,84.6066 118.011,84.0114 113.845,83.7733 109.678,83.6543 105.393,83.7733 101.226,84.1304 97.0595,84.6066 92.893,85.3209 88.9646,86.2732 85.0362,87.4636 81.1078,88.7731 77.2984,90.2016 73.6081,91.8682 "
     class="fil0"
     id="_149444592" /><polygon
     transform="translate(-24.5624,-68.29769)"
     style="fill:#050505"
     points="70.2749,94.011 66.8226,96.0347 63.3704,98.1775 60.1562,100.558 57.0611,102.939 54.085,105.558 51.109,108.296 48.371,111.272 45.752,114.248 43.3712,117.343 40.9903,120.677 38.8475,124.01 36.8238,127.462 35.0382,131.033 33.3716,134.724 31.824,138.533 30.5145,142.342 29.4432,146.271 28.4908,150.318 27.7766,154.366 27.3004,158.532 26.9433,162.699 26.8242,166.984 26.9433,171.151 27.1813,175.198 27.7766,179.246 28.3718,183.174 29.3241,187.222 30.3955,191.031 31.705,194.84 33.1335,198.65 34.8001,202.34 36.5857,205.911 38.6095,209.483 40.7522,212.816 43.1331,216.149 45.633,219.482 48.371,222.577 51.228,225.553 54.2041,228.41 57.2992,231.029 60.5134,233.529 63.8466,235.91 67.2988,238.053 70.751,240.077 74.3223,241.862 78.0127,243.529 81.822,244.957 85.6314,246.267 89.5598,247.338 93.4882,248.291 97.4167,248.886 101.464,249.481 105.512,249.719 109.678,249.838 113.845,249.719 117.892,249.481 121.94,248.886 125.987,248.291 129.915,247.338 133.844,246.267 137.653,244.957 141.463,243.529 145.153,241.862 148.724,240.077 152.295,238.053 155.629,235.91 158.962,233.529 162.295,231.029 165.39,228.41 168.366,225.553 171.223,222.577 173.961,219.482 176.461,216.149 178.842,212.816 180.985,209.483 183.009,205.911 184.794,202.34 186.461,198.65 187.889,194.84 189.08,191.031 190.151,187.222 191.103,183.174 191.699,179.246 192.294,175.198 192.532,171.151 192.651,166.984 192.532,162.818 192.294,158.77 191.699,154.723 191.103,150.675 190.151,146.747 189.08,142.819 187.889,139.009 186.461,135.2 184.794,131.51 183.009,127.938 180.985,124.367 178.842,121.034 176.461,117.701 173.961,114.367 171.223,111.272 168.366,108.296 165.39,105.439 162.295,102.82 158.962,100.32 155.629,97.9394 152.295,95.7966 148.724,93.7729 145.153,91.9873 141.463,90.3207 137.653,88.8922 133.844,87.5827 129.915,86.5113 125.987,85.5589 121.94,84.9637 117.892,84.3685 113.845,84.1304 109.678,84.0114 105.393,84.1304 101.226,84.4876 97.0595,84.9637 93.0121,85.678 89.0836,86.6303 85.1552,87.7017 81.2268,89.0112 77.5365,90.5588 73.8462,92.2254 "
     class="fil30"
     id="_149497888" /><polygon
     transform="translate(-24.5624,-68.29769)"
     style="fill:#070707"
     points="70.513,94.4872 67.0607,96.3919 63.7275,98.6537 60.3943,100.916 57.2992,103.296 54.3231,105.915 51.4661,108.653 48.7281,111.51 46.1092,114.486 43.7283,117.701 41.3474,120.915 39.2047,124.248 37.3,127.7 35.3953,131.271 33.8477,134.962 32.3002,138.652 30.9907,142.462 29.9193,146.39 28.967,150.437 28.2527,154.485 27.7766,158.532 27.4194,162.699 27.3004,166.984 27.4194,171.032 27.6575,175.079 28.2527,179.127 28.8479,183.174 29.8003,187.103 30.8717,190.912 32.0621,194.721 33.4906,198.412 35.1572,202.102 36.9429,205.673 38.9666,209.245 41.1094,212.578 43.4902,215.911 45.9901,219.125 48.6091,222.22 51.4661,225.196 54.4422,228.053 57.5373,230.672 60.7514,233.172 64.0846,235.553 67.4178,237.696 70.9891,239.72 74.5604,241.505 78.2507,243.172 81.9411,244.6 85.7504,245.91 89.5598,246.981 93.4882,247.934 97.5357,248.529 101.583,249.124 105.631,249.362 109.678,249.481 113.845,249.362 117.892,249.124 121.94,248.529 125.987,247.934 129.915,246.981 133.844,245.91 137.653,244.6 141.344,243.172 145.034,241.505 148.605,239.72 152.176,237.696 155.51,235.553 158.843,233.172 162.057,230.672 165.152,228.053 168.128,225.196 170.985,222.22 173.604,219.125 176.104,215.911 178.485,212.578 180.628,209.245 182.651,205.673 184.437,202.102 186.104,198.412 187.532,194.721 188.723,190.912 189.794,187.103 190.746,183.174 191.342,179.127 191.937,175.079 192.175,171.032 192.294,166.984 192.175,162.818 191.937,158.77 191.342,154.723 190.746,150.795 189.794,146.866 188.723,142.938 187.532,139.128 186.104,135.438 184.437,131.748 182.651,128.176 180.628,124.605 178.485,121.272 176.104,117.939 173.604,114.725 170.985,111.629 168.128,108.653 165.152,105.796 162.057,103.177 158.843,100.677 155.51,98.2965 152.176,96.1538 148.605,94.13 145.034,92.3444 141.344,90.6778 137.653,89.2493 133.844,88.0589 129.915,86.9875 125.987,86.0351 121.94,85.4399 117.892,84.8447 113.845,84.6066 109.678,84.4876 105.393,84.6066 101.226,84.9637 97.1786,85.4399 93.1311,86.1542 89.0836,87.1065 85.2743,88.1779 81.4649,89.4874 77.6555,91.0349 74.0842,92.5825 "
     class="fil31"
     id="_149497984" /><polygon
     transform="translate(-24.5624,-68.29769)"
     style="fill:#0c0c0c"
     points="70.632,94.7253 67.1798,96.749 63.8466,98.8918 60.6324,101.154 57.5373,103.654 54.5612,106.272 51.7042,108.891 49.0852,111.748 46.4663,114.844 43.9664,117.939 41.7046,121.153 39.5618,124.486 37.5381,127.938 35.7524,131.391 34.0858,135.081 32.6573,138.771 31.3478,142.581 30.2765,146.509 29.3241,150.437 28.6099,154.485 28.1337,158.651 27.7766,162.818 27.6575,166.984 27.7766,171.032 28.0146,175.079 28.6099,179.127 29.2051,183.055 30.1574,186.984 31.2288,190.793 32.4192,194.602 33.8477,198.293 35.5143,201.983 37.3,205.554 39.3237,209.006 41.4665,212.459 43.7283,215.673 46.2282,218.887 48.8472,221.982 51.7042,224.958 54.6803,227.815 57.7754,230.434 60.9895,232.934 64.3227,235.196 67.6559,237.339 71.1082,239.362 74.6795,241.148 78.3698,242.815 82.0601,244.243 85.8695,245.434 89.6789,246.505 93.6073,247.457 97.5357,248.053 101.583,248.648 105.631,248.886 109.678,249.005 113.845,248.886 117.892,248.648 121.94,248.053 125.868,247.457 129.796,246.505 133.606,245.434 137.415,244.243 141.224,242.815 144.796,241.148 148.367,239.362 151.819,237.339 155.272,235.196 158.605,232.934 161.7,230.434 164.795,227.815 167.771,224.958 170.628,221.982 173.247,218.887 175.747,215.673 178.128,212.459 180.271,209.006 182.175,205.554 184.08,201.983 185.627,198.293 187.056,194.602 188.365,190.793 189.437,186.984 190.27,183.055 190.984,179.127 191.461,175.079 191.699,171.032 191.818,166.984 191.699,162.937 191.461,158.889 190.984,154.842 190.27,150.795 189.437,146.866 188.365,143.057 187.056,139.247 185.627,135.557 184.08,131.867 182.175,128.295 180.271,124.843 178.128,121.391 175.747,118.177 173.247,114.963 170.628,111.867 167.771,108.891 164.795,106.034 161.7,103.415 158.605,100.916 155.272,98.6537 151.819,96.5109 148.367,94.4872 144.796,92.7015 141.224,91.0349 137.415,89.6064 133.606,88.416 129.796,87.3446 125.868,86.3922 121.94,85.797 117.892,85.2018 113.845,84.9637 109.678,84.8447 105.512,84.9637 101.345,85.3209 97.1786,85.797 93.2501,86.5113 89.2027,87.4636 85.3933,88.535 81.5839,89.8445 77.7746,91.273 74.2033,92.9396 "
     class="fil32"
     id="_149498080" /><polygon
     transform="translate(-24.5624,-68.29769)"
     style="fill:#0f0f0f"
     points="70.8701,95.0824 67.4178,97.1061 64.2037,99.1298 60.9895,101.511 57.8944,103.892 54.9183,106.511 52.0613,109.129 49.3233,111.987 46.8234,114.963 44.3235,118.058 42.0617,121.272 39.9189,124.605 38.0142,128.057 36.2286,131.51 34.562,135.2 33.1335,138.89 31.824,142.7 30.7526,146.509 29.8003,150.556 29.086,154.485 28.6099,158.651 28.2527,162.818 28.1337,166.984 28.2527,171.032 28.4908,175.079 28.967,179.008 29.6812,182.936 30.5145,186.865 31.5859,190.674 32.8954,194.483 34.3239,198.174 35.8715,201.864 37.6571,205.316 39.6808,208.887 41.8236,212.221 44.0854,215.554 46.5853,218.649 49.2043,221.744 52.0613,224.72 55.0374,227.577 58.1325,230.196 61.2276,232.577 64.5608,234.958 67.894,237.101 71.3463,239.005 74.9175,240.791 78.6079,242.458 82.2982,243.886 85.9885,245.076 89.7979,246.148 93.7263,247.1 97.6547,247.814 101.583,248.291 105.631,248.529 109.678,248.648 113.726,248.529 117.773,248.291 121.82,247.814 125.749,247.1 129.677,246.148 133.487,245.076 137.296,243.886 140.986,242.458 144.677,240.791 148.248,239.005 151.7,237.101 155.033,234.958 158.367,232.577 161.462,230.196 164.557,227.577 167.533,224.72 170.39,221.744 173.009,218.649 175.39,215.554 177.771,212.221 179.913,208.887 181.818,205.316 183.604,201.864 185.27,198.174 186.699,194.483 187.889,190.674 188.961,186.865 189.913,182.936 190.627,179.008 191.103,175.079 191.342,171.032 191.461,166.984 191.342,162.937 191.103,158.889 190.627,154.842 189.913,150.914 188.961,146.985 187.889,143.176 186.699,139.366 185.27,135.676 183.604,132.105 181.818,128.533 179.913,125.081 177.771,121.629 175.39,118.415 173.009,115.201 170.39,112.225 167.533,109.249 164.557,106.392 161.462,103.773 158.367,101.273 155.033,99.0108 151.7,96.868 148.248,94.8443 144.677,93.0587 140.986,91.3921 137.296,89.9635 133.487,88.7731 129.677,87.7017 125.749,86.7494 121.82,86.1542 117.773,85.5589 113.726,85.3209 109.678,85.2018 105.512,85.3209 101.345,85.678 97.2976,86.1542 93.2501,86.8684 89.3217,87.8208 85.5124,88.8922 81.703,90.2016 78.0127,91.6301 74.4414,93.2967 "
     class="fil21"
     id="_149498176" /><polygon
     transform="translate(-24.5624,-68.29769)"
     style="fill:#141414"
     points="71.1082,95.4395 67.6559,97.4632 64.3227,99.606 61.2276,101.868 58.1325,104.249 55.1564,106.868 52.2994,109.487 49.6805,112.344 47.0615,115.32 44.6806,118.296 42.4188,121.51 40.2761,124.843 38.3714,128.295 36.5857,131.748 34.9191,135.319 33.4906,139.009 32.1811,142.819 31.1098,146.628 30.1574,150.556 29.4432,154.604 28.967,158.651 28.6099,162.818 28.4908,166.984 28.6099,171.032 28.8479,175.079 29.3241,179.008 30.0384,182.936 30.8717,186.745 31.9431,190.555 33.2525,194.364 34.681,198.055 36.2286,201.626 38.0142,205.197 39.9189,208.649 42.0617,211.983 44.4426,215.197 46.8234,218.411 49.4424,221.387 52.2994,224.363 55.2755,227.22 58.2515,229.839 61.4657,232.22 64.6799,234.601 68.0131,236.743 71.4653,238.648 75.0366,240.434 78.7269,241.981 82.2982,243.41 86.1076,244.719 89.9169,245.791 93.7263,246.624 97.6547,247.338 101.702,247.814 105.631,248.053 109.678,248.172 113.726,248.053 117.773,247.814 121.701,247.338 125.749,246.624 129.558,245.791 133.368,244.719 137.177,243.41 140.867,241.981 144.439,240.434 148.01,238.648 151.462,236.743 154.795,234.601 158.01,232.22 161.224,229.839 164.2,227.22 167.176,224.363 170.033,221.387 172.652,218.411 175.033,215.197 177.414,211.983 179.556,208.649 181.461,205.197 183.247,201.626 184.794,198.055 186.223,194.364 187.532,190.555 188.604,186.745 189.437,182.936 190.151,179.008 190.627,175.079 190.865,171.032 190.984,166.984 190.865,162.937 190.627,158.889 190.151,154.961 189.437,151.033 188.604,147.104 187.532,143.295 186.223,139.604 184.794,135.914 183.247,132.224 181.461,128.772 179.556,125.319 177.414,121.867 175.033,118.653 172.652,115.439 170.033,112.463 167.176,109.487 164.2,106.63 161.224,104.011 158.01,101.63 154.795,99.2489 151.462,97.1061 148.01,95.2014 144.439,93.4158 140.867,91.8682 137.177,90.4397 133.368,89.1302 129.558,88.0589 125.749,87.2256 121.701,86.5113 117.773,86.0351 113.726,85.797 109.678,85.678 105.512,85.797 101.464,86.1542 97.4167,86.6303 93.3692,87.3446 89.4408,88.2969 85.6314,89.3683 81.822,90.5588 78.1317,92.1063 74.5604,93.6539 "
     class="fil2"
     id="_149498248" /><polygon
     transform="translate(-24.5624,-68.29769)"
     style="fill:#161616"
     points="71.2272,95.7966 67.894,97.8204 64.6799,99.8441 61.4657,102.106 58.3706,104.487 55.5136,107.106 52.6565,109.725 50.0376,112.582 47.4186,115.558 45.0378,118.534 42.776,121.748 40.6332,125.081 38.7285,128.414 36.9429,131.867 35.2763,135.557 33.8477,139.128 32.6573,142.938 31.4669,146.747 30.6336,150.675 29.9193,154.723 29.4432,158.77 29.086,162.818 28.967,166.984 29.086,171.032 29.3241,174.96 29.8003,178.889 30.5145,182.817 31.3478,186.745 32.4192,190.436 33.6097,194.245 35.0382,197.816 36.5857,201.507 38.3714,204.959 40.3951,208.411 42.4188,211.744 44.7997,214.959 47.1805,218.173 49.9185,221.149 52.6565,224.125 55.5136,226.863 58.6087,229.482 61.7038,231.982 65.037,234.244 68.3702,236.386 71.7034,238.291 75.2747,240.077 78.846,241.624 82.5363,243.053 86.2266,244.362 90.036,245.434 93.8454,246.267 97.7738,246.981 101.702,247.457 105.631,247.695 109.678,247.814 113.726,247.695 117.773,247.457 121.701,246.981 125.63,246.267 129.439,245.434 133.249,244.362 137.058,243.053 140.748,241.624 144.32,240.077 147.891,238.291 151.224,236.386 154.557,234.244 157.89,231.982 160.986,229.482 164.081,226.863 166.938,224.125 169.676,221.149 172.295,218.173 174.795,214.959 177.056,211.744 179.199,208.411 181.104,204.959 182.889,201.507 184.556,197.816 185.866,194.245 187.175,190.436 188.246,186.745 189.08,182.817 189.794,178.889 190.27,174.96 190.508,171.032 190.627,166.984 190.508,162.937 190.27,159.008 189.794,154.961 189.08,151.152 188.246,147.223 187.175,143.414 185.866,139.724 184.556,136.033 182.889,132.462 181.104,128.891 179.199,125.438 177.056,122.105 174.795,118.891 172.295,115.677 169.676,112.701 166.938,109.725 164.081,106.987 160.986,104.368 157.89,101.868 154.557,99.606 151.224,97.4632 147.891,95.5586 144.32,93.7729 140.748,92.1063 137.058,90.7968 133.249,89.4874 129.439,88.416 125.63,87.5827 121.701,86.8684 117.773,86.3922 113.726,86.1542 109.678,86.0351 105.512,86.1542 101.464,86.5113 97.4167,86.9875 93.4882,87.7017 89.5598,88.535 85.7504,89.7255 81.9411,90.9159 78.3698,92.4634 74.7985,94.011 "
     class="fil33"
     id="_149498320" /><polygon
     transform="translate(-24.5624,-68.29769)"
     style="fill:#1c1c1c"
     points="71.4653,96.2728 68.0131,98.1775 64.7989,100.32 61.5847,102.463 58.6087,104.844 55.6326,107.463 52.8946,110.082 50.2757,112.939 47.6567,115.796 45.2759,118.891 43.014,121.986 40.9903,125.319 39.0856,128.653 37.3,132.105 35.6334,135.676 34.2049,139.366 32.8954,143.057 31.824,146.866 30.9907,150.795 30.2765,154.723 29.6812,158.77 29.4432,162.818 29.3241,166.984 29.4432,171.032 29.6812,174.96 30.1574,178.889 30.8717,182.817 31.705,186.626 32.7764,190.436 33.9668,194.126 35.3953,197.697 36.9429,201.269 38.7285,204.84 40.6332,208.173 42.776,211.506 45.0378,214.721 47.5377,217.816 50.1566,220.911 52.8946,223.768 55.7516,226.506 58.8468,229.125 61.9419,231.625 65.156,233.886 68.4892,236.029 71.9415,237.934 75.3937,239.72 78.965,241.267 82.6553,242.696 86.3457,243.886 90.155,244.957 93.9644,245.791 97.7738,246.505 101.702,246.981 105.75,247.219 109.678,247.338 113.726,247.219 117.654,246.981 121.582,246.505 125.511,245.791 129.439,244.957 133.13,243.886 136.939,242.696 140.51,241.267 144.082,239.72 147.653,237.934 151.105,236.029 154.438,233.886 157.652,231.625 160.748,229.125 163.843,226.506 166.7,223.768 169.438,220.911 172.057,217.816 174.437,214.721 176.818,211.506 178.842,208.173 180.747,204.84 182.532,201.269 184.199,197.697 185.508,194.126 186.818,190.436 187.889,186.626 188.723,182.817 189.437,178.889 189.913,174.96 190.151,171.032 190.27,166.984 190.151,162.937 189.913,159.008 189.437,155.08 188.723,151.152 187.889,147.342 186.818,143.533 185.508,139.843 184.199,136.152 182.532,132.581 180.747,129.129 178.842,125.676 176.818,122.343 174.437,119.129 172.057,116.034 169.438,112.939 166.7,110.082 163.843,107.344 160.748,104.725 157.652,102.225 154.438,99.9631 151.105,97.8204 147.653,95.9157 144.082,94.13 140.51,92.5825 136.939,91.154 133.13,89.9635 129.439,88.8922 125.511,88.0589 121.582,87.3446 117.654,86.8684 113.726,86.6303 109.678,86.5113 105.512,86.6303 101.464,86.8684 97.4167,87.4636 93.4882,88.1779 89.6789,89.0112 85.8695,90.0826 82.0601,91.3921 78.4888,92.8206 74.9175,94.4872 "
     class="fil3"
     id="_149498416" /><polygon
     transform="translate(-24.5624,-68.29769)"
     style="fill:#212121"
     points="71.5843,96.5109 68.2511,98.5346 65.037,100.558 61.8228,102.82 58.8468,105.201 55.9897,107.701 53.1327,110.32 50.5138,113.177 48.0139,116.034 45.633,119.129 43.3712,122.224 41.3474,125.438 39.3237,128.891 37.5381,132.343 35.9905,135.795 34.562,139.485 33.2525,143.176 32.1811,146.985 31.3478,150.914 30.6336,154.842 30.0384,158.77 29.8003,162.818 29.6812,166.984 29.8003,170.913 30.0384,174.96 30.5145,178.77 31.2288,182.698 32.0621,186.507 33.1335,190.198 34.3239,194.007 35.7524,197.578 37.3,201.15 39.0856,204.602 40.9903,208.054 43.1331,211.268 45.3949,214.482 47.8948,217.578 50.5138,220.673 53.2517,223.53 56.1088,226.268 59.2039,228.887 62.299,231.268 65.5132,233.529 68.7273,235.672 72.1796,237.577 75.6318,239.362 79.2031,240.91 82.7744,242.338 86.4647,243.529 90.2741,244.6 94.0834,245.434 97.8928,246.148 101.821,246.624 105.75,246.862 109.678,246.981 113.726,246.862 117.654,246.624 121.582,246.148 125.392,245.434 129.32,244.6 133.011,243.529 136.701,242.338 140.391,240.91 143.962,239.362 147.415,237.577 150.867,235.672 154.081,233.529 157.295,231.268 160.39,228.887 163.486,226.268 166.343,223.53 169.081,220.673 171.699,217.578 174.08,214.482 176.342,211.268 178.485,208.054 180.39,204.602 182.175,201.15 183.723,197.578 185.151,194.007 186.342,190.198 187.413,186.507 188.246,182.698 188.961,178.77 189.437,174.96 189.675,170.913 189.794,166.984 189.675,162.937 189.437,159.008 188.961,155.08 188.246,151.271 187.413,147.342 186.342,143.652 185.151,139.962 183.723,136.271 182.175,132.7 180.39,129.248 178.485,125.795 176.342,122.581 174.08,119.367 171.699,116.272 169.081,113.177 166.343,110.32 163.486,107.582 160.39,104.963 157.295,102.582 154.081,100.32 150.867,98.1775 147.415,96.2728 143.962,94.4872 140.391,92.9396 136.701,91.5111 133.011,90.3207 129.32,89.2493 125.392,88.416 121.582,87.7017 117.654,87.2256 113.726,86.9875 109.678,86.8684 105.631,86.9875 101.464,87.2256 97.5357,87.8208 93.6073,88.535 89.6789,89.3683 85.9885,90.4397 82.1792,91.7492 78.6079,93.1777 75.0366,94.7253 "
     class="fil20"
     id="_149498488" /><polygon
     transform="translate(-24.5624,-68.29769)"
     style="fill:#232323"
     points="71.8224,96.9871 68.4892,98.8918 65.2751,100.916 62.18,103.177 59.0848,105.558 56.2278,108.058 53.4898,110.677 50.8709,113.415 48.371,116.391 45.9901,119.367 43.7283,122.462 41.7046,125.676 39.7999,129.01 38.0142,132.462 36.4667,136.033 35.0382,139.604 33.7287,143.295 32.6573,147.104 31.824,150.914 31.1098,154.842 30.5145,158.889 30.2765,162.937 30.1574,166.984 30.2765,170.913 30.5145,174.841 30.9907,178.77 31.705,182.579 32.5383,186.388 33.6097,190.079 34.8001,193.769 36.2286,197.34 37.7762,200.912 39.5618,204.364 41.4665,207.816 43.4902,211.03 45.752,214.244 48.1329,217.339 50.7518,220.316 53.4898,223.173 56.3469,225.911 59.3229,228.53 62.418,230.91 65.6322,233.172 68.9654,235.315 72.2986,237.22 75.7508,238.886 79.3221,240.553 82.8934,241.862 86.5837,243.053 90.2741,244.124 94.0834,244.957 98.0119,245.672 101.821,246.148 105.75,246.386 109.678,246.505 113.607,246.386 117.654,246.148 121.463,245.672 125.392,244.957 129.201,244.124 132.891,243.053 136.582,241.862 140.272,240.553 143.724,238.886 147.177,237.22 150.629,235.315 153.962,233.172 157.057,230.91 160.271,228.53 163.247,225.911 166.104,223.173 168.842,220.316 171.461,217.339 173.842,214.244 176.104,211.03 178.128,207.816 180.032,204.364 181.818,200.912 183.366,197.34 184.794,193.769 185.985,190.079 187.056,186.388 187.889,182.579 188.604,178.77 189.08,174.841 189.318,170.913 189.437,166.984 189.318,163.056 189.08,159.008 188.604,155.199 187.889,151.271 187.056,147.461 185.985,143.771 184.794,140.081 183.366,136.509 181.818,132.938 180.032,129.486 178.128,126.034 176.104,122.819 173.842,119.605 171.461,116.51 168.842,113.534 166.104,110.677 163.247,107.939 160.271,105.32 157.057,102.939 153.962,100.677 150.629,98.5346 147.177,96.6299 143.724,94.9633 140.272,93.2967 136.582,91.9873 132.891,90.7968 129.201,89.7255 125.392,88.8922 121.463,88.1779 117.654,87.7017 113.607,87.4636 109.678,87.3446 105.631,87.4636 101.583,87.7017 97.5357,88.2969 93.7263,89.0112 89.7979,89.8445 86.1076,90.9159 82.4172,92.2254 78.7269,93.6539 75.2747,95.2014 "
     class="fil34"
     id="_149498560" /><polygon
     transform="translate(-24.5624,-68.29769)"
     style="fill:#282828"
     points="72.0605,97.3442 68.7273,99.2489 65.5132,101.273 62.418,103.534 59.442,105.796 56.4659,108.296 53.7279,110.915 51.109,113.772 48.6091,116.629 46.2282,119.605 44.0854,122.7 42.0617,125.915 40.157,129.248 38.3714,132.7 36.7048,136.152 35.2763,139.724 34.0858,143.414 33.0144,147.223 32.1811,151.033 31.4669,154.961 30.8717,158.889 30.6336,162.937 30.5145,166.984 30.6336,170.913 30.8717,174.841 31.3478,178.651 32.0621,182.46 32.8954,186.269 33.9668,189.96 35.1572,193.65 36.5857,197.221 38.1333,200.793 39.7999,204.245 41.7046,207.578 43.8473,210.792 46.1092,214.006 48.49,217.101 50.9899,220.077 53.7279,222.934 56.5849,225.672 59.561,228.291 62.6561,230.672 65.8703,232.934 69.0844,234.958 72.4176,236.863 75.8699,238.648 79.4412,240.196 83.0125,241.505 86.7028,242.815 90.3931,243.767 94.2025,244.6 98.0119,245.315 101.821,245.791 105.75,246.029 109.678,246.148 113.607,246.029 117.535,245.791 121.463,245.315 125.273,244.6 129.082,243.767 132.772,242.815 136.463,241.505 140.034,240.196 143.605,238.648 147.058,236.863 150.391,234.958 153.605,232.934 156.819,230.672 159.914,228.291 162.89,225.672 165.747,222.934 168.485,220.077 171.104,217.101 173.485,214.006 175.747,210.792 177.771,207.578 179.675,204.245 181.461,200.793 183.009,197.221 184.318,193.65 185.627,189.96 186.58,186.269 187.413,182.46 188.127,178.651 188.604,174.841 188.842,170.913 188.961,166.984 188.842,163.056 188.604,159.128 188.127,155.199 187.413,151.39 186.58,147.58 185.627,143.89 184.318,140.2 183.009,136.628 181.461,133.057 179.675,129.605 177.771,126.272 175.747,123.058 173.485,119.843 171.104,116.748 168.485,113.772 165.747,110.915 162.89,108.177 159.914,105.558 156.819,103.177 153.605,100.916 150.391,98.8918 147.058,96.9871 143.605,95.2014 140.034,93.6539 136.463,92.3444 132.772,91.0349 129.082,90.0826 125.273,89.2493 121.463,88.535 117.535,88.0589 113.607,87.8208 109.678,87.7017 105.631,87.8208 101.583,88.0589 97.6547,88.6541 93.7263,89.3683 89.9169,90.2016 86.2266,91.273 82.5363,92.5825 78.965,93.892 75.3937,95.5586 "
     class="fil35"
     id="_149498656" /><polygon
     transform="translate(-24.5624,-68.29769)"
     style="fill:#2b2b2b"
     points="72.1796,97.5823 68.9654,99.487 65.7512,101.63 62.6561,103.773 59.6801,106.153 56.823,108.653 54.085,111.272 51.4661,114.01 48.9662,116.867 46.7044,119.843 44.4426,122.938 42.4188,126.153 40.5141,129.367 38.7285,132.819 37.1809,136.271 35.7524,139.962 34.562,143.533 33.4906,147.342 32.5383,151.152 31.9431,154.961 31.3478,158.889 31.1098,162.937 30.9907,166.984 31.1098,170.913 31.3478,174.722 31.824,178.651 32.5383,182.46 33.3716,186.15 34.3239,189.841 35.6334,193.531 36.9429,197.102 38.4904,200.554 40.2761,204.007 42.1807,207.34 44.2045,210.554 46.4663,213.768 48.8472,216.863 51.3471,219.839 54.085,222.696 56.9421,225.434 59.9181,227.934 62.8942,230.315 66.1084,232.577 69.3225,234.601 72.6557,236.505 76.108,238.291 79.5602,239.839 83.1315,241.148 86.8218,242.458 90.5122,243.41 94.2025,244.243 98.0119,244.957 101.94,245.434 105.75,245.672 109.678,245.791 113.607,245.672 117.535,245.434 121.344,244.957 125.154,244.243 128.963,243.41 132.653,242.458 136.344,241.148 139.915,239.839 143.486,238.291 146.82,236.505 150.153,234.601 153.486,232.577 156.581,230.315 159.676,227.934 162.652,225.434 165.509,222.696 168.247,219.839 170.747,216.863 173.128,213.768 175.39,210.554 177.414,207.34 179.318,204.007 181.104,200.554 182.651,197.102 183.961,193.531 185.27,189.841 186.223,186.15 187.056,182.46 187.77,178.651 188.246,174.722 188.485,170.913 188.604,166.984 188.485,163.056 188.246,159.128 187.77,155.318 187.056,151.509 186.223,147.699 185.27,144.009 183.961,140.438 182.651,136.747 181.104,133.295 179.318,129.843 177.414,126.51 175.39,123.296 173.128,120.081 170.747,117.105 168.247,114.129 165.509,111.272 162.652,108.534 159.676,105.915 156.581,103.534 153.486,101.273 150.153,99.2489 146.82,97.3442 143.486,95.5586 139.915,94.011 136.344,92.7015 132.653,91.3921 128.963,90.4397 125.154,89.6064 121.344,88.8922 117.535,88.416 113.607,88.1779 109.678,88.0589 105.631,88.1779 101.702,88.416 97.7738,89.0112 93.8454,89.7255 90.036,90.5588 86.3457,91.6301 82.6553,92.8206 79.084,94.2491 75.6318,95.9157 "
     class="fil36"
     id="_149498752" /><polygon
     transform="translate(-24.5624,-68.29769)"
     style="fill:#303030"
     points="72.4176,98.0585 69.0844,99.9631 65.9893,101.987 62.8942,104.13 59.9181,106.511 57.0611,109.01 54.3231,111.51 51.7042,114.248 49.3233,117.105 46.9425,120.081 44.7997,123.177 42.776,126.391 40.8713,129.605 39.0856,133.057 37.5381,136.509 36.1096,140.081 34.9191,143.652 33.8477,147.461 32.8954,151.152 32.3002,155.08 31.705,159.008 31.4669,162.937 31.3478,166.984 31.4669,170.913 31.705,174.722 32.1811,178.531 32.8954,182.341 33.7287,186.031 34.681,189.722 35.8715,193.412 37.3,196.983 38.8475,200.435 40.5141,203.888 42.4188,207.102 44.5616,210.435 46.7044,213.53 49.0852,216.625 51.5851,219.482 54.3231,222.339 57.1802,225.077 60.1562,227.577 63.1323,229.958 66.3465,232.22 69.5606,234.244 72.8938,236.148 76.3461,237.815 79.7983,239.362 83.3696,240.791 86.9409,241.981 90.6312,242.934 94.3215,243.767 98.1309,244.481 101.94,244.957 105.75,245.196 109.678,245.315 113.607,245.196 117.416,244.957 121.344,244.481 125.154,243.767 128.844,242.934 132.534,241.981 136.225,240.791 139.796,239.362 143.248,237.815 146.581,236.148 149.915,234.244 153.248,232.22 156.343,229.958 159.438,227.577 162.295,225.077 165.152,222.339 167.89,219.482 170.39,216.625 172.771,213.53 175.033,210.435 177.056,207.102 178.961,203.888 180.628,200.435 182.175,196.983 183.604,193.412 184.794,189.722 185.747,186.031 186.58,182.341 187.294,178.531 187.77,174.722 188.008,170.913 188.127,166.984 188.008,163.056 187.77,159.247 187.294,155.318 186.58,151.509 185.747,147.818 184.794,144.128 183.604,140.438 182.175,136.866 180.628,133.414 178.961,130.081 177.056,126.748 175.033,123.415 172.771,120.32 170.39,117.224 167.89,114.367 165.152,111.51 162.295,108.772 159.438,106.272 156.343,103.892 153.248,101.63 149.915,99.606 146.581,97.7013 143.248,96.0347 139.796,94.4872 136.225,93.0587 132.534,91.8682 128.844,90.9159 125.154,90.0826 121.344,89.3683 117.416,88.8922 113.607,88.6541 109.678,88.535 105.631,88.6541 101.702,88.8922 97.7738,89.4874 93.9644,90.0826 90.155,91.0349 86.4647,92.1063 82.7744,93.2967 79.2031,94.7253 75.7508,96.2728 "
     class="fil5"
     id="_149498848" /><polygon
     transform="translate(-24.5624,-68.29769)"
     style="fill:#333333"
     points="72.6557,98.2965 69.3225,100.201 66.2274,102.225 63.1323,104.487 60.1562,106.749 57.4182,109.249 54.6803,111.867 52.0613,114.486 49.6805,117.343 47.2996,120.32 45.1568,123.415 43.1331,126.51 41.2284,129.843 39.5618,133.176 38.0142,136.628 36.5857,140.2 35.3953,143.771 34.3239,147.461 33.3716,151.271 32.7764,155.08 32.1811,159.008 31.9431,162.937 31.824,166.984 31.9431,170.913 32.1811,174.722 32.6573,178.531 33.3716,182.222 34.2049,186.031 35.1572,189.602 36.3476,193.293 37.7762,196.745 39.2047,200.197 40.9903,203.65 42.895,206.983 44.9187,210.197 47.0615,213.292 49.4424,216.387 51.9423,219.244 54.6803,222.101 57.5373,224.839 60.3943,227.339 63.4894,229.72 66.5845,231.863 69.7987,233.886 73.1319,235.791 76.4651,237.577 79.9173,239.005 83.4886,240.434 87.0599,241.624 90.7502,242.577 94.4406,243.41 98.1309,244.124 101.94,244.6 105.75,244.838 109.678,244.957 113.607,244.838 117.416,244.6 121.225,244.124 125.035,243.41 128.725,242.577 132.415,241.624 135.987,240.434 139.558,239.005 143.01,237.577 146.462,235.791 149.796,233.886 153.01,231.863 156.105,229.72 159.2,227.339 162.057,224.839 164.914,222.101 167.652,219.244 170.152,216.387 172.533,213.292 174.676,210.197 176.699,206.983 178.604,203.65 180.39,200.197 181.937,196.745 183.247,193.293 184.437,189.602 185.389,186.031 186.223,182.222 186.937,178.531 187.413,174.722 187.651,170.913 187.77,166.984 187.651,163.056 187.413,159.247 186.937,155.437 186.223,151.628 185.389,147.937 184.437,144.247 183.247,140.676 181.937,137.105 180.39,133.652 178.604,130.2 176.699,126.867 174.676,123.653 172.533,120.558 170.152,117.462 167.652,114.605 164.914,111.748 162.057,109.129 159.2,106.511 156.105,104.249 153.01,101.987 149.796,99.9631 146.462,98.0585 143.01,96.3919 139.558,94.8443 135.987,93.4158 132.415,92.2254 128.725,91.273 125.035,90.4397 121.225,89.7255 117.416,89.2493 113.607,89.0112 109.678,88.8922 105.631,89.0112 101.702,89.2493 97.8928,89.8445 94.0834,90.4397 90.2741,91.3921 86.5837,92.4634 83.0125,93.6539 79.4412,95.0824 75.9889,96.6299 "
     class="fil37"
     id="_149498920" /><polygon
     transform="translate(-24.5624,-68.29769)"
     style="fill:#383838"
     points="72.7748,98.7727 69.5606,100.558 66.4655,102.582 63.3704,104.844 60.5134,107.106 57.6563,109.487 54.9183,112.106 52.4184,114.844 49.9185,117.582 47.6567,120.558 45.5139,123.534 43.4902,126.748 41.5855,129.962 39.7999,133.295 38.2523,136.747 36.9429,140.319 35.6334,143.89 34.681,147.58 33.7287,151.39 33.1335,155.199 32.5383,159.008 32.3002,162.937 32.1811,166.984 32.3002,170.794 32.5383,174.603 33.0144,178.412 33.7287,182.222 34.562,185.912 35.5143,189.483 36.7048,193.055 38.0142,196.626 39.5618,200.078 41.3474,203.411 43.1331,206.745 45.1568,209.959 47.4186,213.054 49.6805,216.03 52.2994,218.887 54.9183,221.744 57.7754,224.482 60.6324,226.982 63.6085,229.363 66.7036,231.506 69.9177,233.529 73.2509,235.434 76.5841,237.101 80.0364,238.648 83.6077,239.958 87.179,241.148 90.7502,242.219 94.4406,243.053 98.25,243.648 102.059,244.124 105.869,244.362 109.678,244.481 113.607,244.362 117.416,244.124 121.225,243.648 125.035,243.053 128.725,242.219 132.296,241.148 135.987,239.958 139.439,238.648 142.891,237.101 146.224,235.434 149.557,233.529 152.772,231.506 155.867,229.363 158.962,226.982 161.819,224.482 164.676,221.744 167.295,218.887 169.914,216.03 172.176,213.054 174.437,209.959 176.461,206.745 178.247,203.411 180.032,200.078 181.58,196.626 182.889,193.055 184.08,189.483 185.032,185.912 185.866,182.222 186.58,178.412 187.056,174.603 187.294,170.794 187.413,166.984 187.294,163.056 187.056,159.247 186.58,155.437 185.866,151.747 185.032,148.057 184.08,144.366 182.889,140.795 181.58,137.224 180.032,133.771 178.247,130.438 176.461,127.105 174.437,123.891 172.176,120.796 169.914,117.82 167.295,114.963 164.676,112.106 161.819,109.487 158.962,106.868 155.867,104.606 152.772,102.344 149.557,100.32 146.224,98.5346 142.891,96.749 139.439,95.2014 135.987,93.892 132.296,92.7015 128.725,91.7492 125.035,90.9159 121.225,90.2016 117.416,89.7255 113.607,89.4874 109.678,89.3683 105.75,89.4874 101.821,89.7255 97.8928,90.3207 94.0834,90.9159 90.3931,91.8682 86.7028,92.8206 83.1315,94.13 79.5602,95.4395 76.108,96.9871 "
     class="fil38"
     id="_149499016" /><polygon
     transform="translate(-24.5624,-68.29769)"
     style="fill:#3d3d3d"
     points="45.752,123.772 41.9427,130.2 38.6095,136.986 35.9905,144.009 34.0858,151.39 32.8954,159.128 32.5383,166.984 32.6573,170.794 32.8954,174.603 33.3716,178.412 34.0858,182.103 34.9191,185.793 35.8715,189.364 37.0619,192.936 38.3714,196.388 39.9189,199.84 41.7046,203.173 43.4902,206.507 45.5139,209.721 47.7758,212.816 50.0376,215.792 52.6565,218.649 55.2755,221.506 58.0135,224.125 60.9895,226.625 63.9656,229.006 67.0607,231.148 70.1558,233.172 73.489,235.077 76.8222,236.743 80.2745,238.291 83.7267,239.601 87.298,240.791 90.8693,241.862 94.5596,242.577 98.25,243.291 102.059,243.767 105.869,244.005 109.678,244.124 113.487,244.005 117.416,243.767 121.225,243.291 124.916,242.577 128.606,241.862 132.296,240.791 135.868,239.601 139.32,238.291 142.772,236.743 146.105,235.077 149.438,233.172 152.534,231.148 155.629,229.006 158.605,226.625 161.581,224.125 164.319,221.506 166.938,218.649 169.438,215.792 171.819,212.816 174.08,209.721 176.104,206.507 177.89,203.173 179.556,199.84 181.104,196.388 182.413,192.936 183.604,189.364 184.675,185.793 185.508,182.103 186.104,178.412 186.58,174.603 186.818,170.794 186.937,166.984 186.818,163.175 186.58,159.366 186.104,155.556 185.508,151.866 184.675,148.176 183.604,144.485 182.413,140.914 181.104,137.462 179.556,134.009 177.89,130.676 176.104,127.343 174.08,124.129 171.819,121.034 169.438,118.058 166.938,115.201 164.319,112.344 161.581,109.725 158.605,107.225 155.629,104.844 152.534,102.701 149.438,100.677 146.105,98.7727 142.772,97.1061 139.32,95.5586 135.868,94.2491 132.296,93.0587 128.606,91.9873 124.916,91.273 121.225,90.5588 117.416,90.0826 113.487,89.8445 109.678,89.7255 101.821,90.0826 94.2025,91.273 86.8218,93.1777 79.7983,95.7966 73.0129,99.0108 66.7036,102.939 60.7514,107.344 55.2755,112.344 50.2757,117.82 "
     class="fil39"
     id="_149499112" /><polygon
     transform="translate(-24.5624,-68.29769)"
     style="fill:#000000"
     points="75.6318,231.029 72.5367,229.244 69.5606,227.339 66.7036,225.315 63.8466,223.173 61.1086,220.792 58.4896,218.292 55.9897,215.673 53.6089,212.935 51.3471,210.078 49.3233,207.102 47.4186,204.126 45.633,201.031 44.0854,197.935 42.6569,194.721 41.3474,191.388 40.2761,188.055 39.3237,184.603 38.6095,181.15 38.0142,177.698 37.5381,174.127 37.3,170.556 37.1809,166.984 37.3,163.413 37.5381,159.723 38.0142,156.27 38.6095,152.699 39.3237,149.247 40.2761,145.795 41.3474,142.462 42.6569,139.128 44.0854,135.914 45.633,132.819 47.4186,129.724 49.3233,126.748 51.3471,123.891 53.6089,121.034 55.9897,118.296 58.4896,115.677 61.1086,113.177 63.8466,110.796 66.7036,108.534 69.5606,106.511 72.5367,104.606 75.6318,102.82 78.846,101.273 82.0601,99.8441 85.2743,98.5346 88.7265,97.4632 92.0597,96.5109 95.512,95.7966 98.9642,95.2014 102.536,94.7253 106.107,94.4872 109.678,94.3681 113.249,94.4872 116.94,94.7253 120.511,95.2014 123.963,95.7966 127.416,96.5109 130.868,97.4632 134.201,98.5346 137.534,99.8441 140.748,101.273 143.962,102.82 147.058,104.606 150.034,106.511 152.891,108.534 155.748,110.677 158.486,113.058 161.105,115.558 163.605,118.177 165.985,120.915 168.128,123.772 170.152,126.748 172.057,129.724 173.842,132.819 175.509,135.914 176.937,139.128 178.128,142.462 179.318,145.795 180.271,149.247 180.985,152.699 181.58,156.27 182.056,159.723 182.294,163.413 182.413,166.984 182.294,170.556 182.056,174.127 181.58,177.698 180.985,181.15 180.271,184.603 179.318,188.055 178.128,191.388 176.937,194.721 175.509,197.935 173.842,201.031 172.057,204.126 170.152,207.102 168.128,210.078 165.985,212.935 163.605,215.673 161.105,218.292 158.486,220.792 155.748,223.173 152.891,225.315 150.034,227.339 147.058,229.244 143.962,231.029 140.748,232.696 137.534,234.125 134.201,235.315 130.868,236.505 127.416,237.458 123.963,238.172 120.511,238.767 116.94,239.243 113.249,239.481 109.678,239.601 106.107,239.481 102.536,239.243 98.9642,238.767 95.512,238.172 92.0597,237.458 88.6075,236.505 85.2743,235.315 81.9411,234.125 78.7269,232.696 "
     class="fil0"
     id="_149499208" /><polygon
     transform="translate(-24.5624,-68.29769)"
     style="fill:#cecece"
     points="148.724,109.01 143.01,105.558 136.82,102.582 130.392,100.201 123.725,98.5346 116.821,97.4632 109.678,97.1061 102.536,97.4632 95.631,98.5346 88.9646,100.201 82.5363,102.582 76.4651,105.558 70.751,109.01 65.3941,113.058 60.3943,117.582 55.9897,122.581 51.9423,127.938 48.49,133.652 45.5139,139.843 43.1331,146.271 41.4665,152.937 40.3951,159.842 40.038,166.984 40.3951,174.127 41.4665,181.031 43.1331,187.698 45.5139,194.126 48.49,200.197 51.9423,205.911 55.9897,211.268 60.3943,216.268 65.3941,220.792 70.751,224.839 76.4651,228.291 82.5363,231.268 88.9646,233.648 95.631,235.315 102.536,236.386 109.678,236.743 116.821,236.386 123.725,235.315 130.392,233.648 136.82,231.268 143.01,228.291 148.724,224.839 154.081,220.792 159.081,216.268 163.605,211.268 167.652,205.911 171.104,200.197 174.08,194.126 176.461,187.698 178.128,181.031 179.199,174.127 179.556,166.984 179.199,159.842 178.128,152.937 176.461,146.271 174.08,139.843 171.104,133.652 167.652,127.938 163.605,122.581 159.081,117.582 154.081,113.058 "
     class="fil40"
     id="_149499280" /><polygon
     transform="translate(-24.5624,-68.29769)"
     style="fill:#a0a0a0"
     points="134.439,102.463 136.463,103.058 138.367,103.892 140.391,104.606 142.296,105.439 144.082,106.392 145.986,107.344 143.962,106.153 141.939,105.082 139.796,104.011 137.772,103.058 135.51,102.106 133.368,101.273 131.106,100.558 128.844,99.8441 126.582,99.2489 124.201,98.6537 121.82,98.1775 119.44,97.8204 117.059,97.4632 114.678,97.2252 112.178,97.1061 109.678,97.1061 102.536,97.4632 95.631,98.5346 88.9646,100.201 82.5363,102.582 76.4651,105.558 70.751,109.01 65.3941,113.058 60.3943,117.582 55.9897,122.581 51.9423,127.938 48.49,133.652 45.5139,139.843 43.1331,146.271 41.4665,152.937 40.3951,159.842 40.038,166.984 40.157,171.865 40.7522,176.746 41.5855,181.508 42.6569,186.15 44.2045,190.674 45.8711,194.959 47.8948,199.245 50.2757,203.292 52.7756,207.102 55.6326,210.792 58.6087,214.363 61.9419,217.578 65.3941,220.673 69.0844,223.53 72.8938,226.149 76.9413,228.41 73.2509,226.03 69.6797,223.411 66.3465,220.554 63.2513,217.459 60.2753,214.244 57.5373,210.792 54.9183,207.221 52.6565,203.531 50.5138,199.602 48.7281,195.555 47.0615,191.388 45.752,187.103 44.7997,182.698 43.9664,178.174 43.4902,173.532 43.3712,168.889 43.7283,161.746 44.7997,154.842 46.4663,148.176 48.8472,141.747 51.8232,135.676 55.2755,129.843 59.3229,124.486 63.8466,119.486 68.8464,115.082 74.2033,111.034 79.9173,107.582 85.9885,104.606 92.4168,102.225 99.0833,100.558 105.988,99.487 113.13,99.1298 115.392,99.1298 117.535,99.2489 119.797,99.487 121.94,99.7251 124.082,99.9631 126.225,100.32 128.249,100.796 130.392,101.273 132.415,101.868 "
     class="fil41"
     id="_149499376" /><polygon
     transform="translate(-24.5624,-68.29769)"
     style="fill:#eaeaea"
     points="136.225,220.673 130.63,224.006 124.678,226.863 118.487,229.125 112.059,230.791 105.393,231.744 98.488,232.101 97.2976,232.101 96.2262,232.101 95.0358,231.982 93.9644,231.982 92.774,231.863 91.7026,231.744 90.6312,231.625 89.5598,231.506 91.7026,232.101 93.9644,232.577 96.2262,233.053 98.488,233.41 100.75,233.767 103.131,234.005 105.512,234.125 107.892,234.125 114.797,233.767 121.463,232.696 127.892,231.148 134.082,228.768 140.034,226.03 145.629,222.577 150.748,218.768 155.51,214.363 159.914,209.602 163.724,204.364 167.176,198.888 170.033,192.936 172.295,186.865 173.961,180.436 174.914,173.77 175.271,166.865 175.033,160.556 174.08,154.366 172.771,148.414 170.747,142.7 168.366,137.224 165.509,131.986 162.176,126.986 158.486,122.462 154.438,118.177 149.915,114.248 145.153,110.796 140.034,107.701 134.677,105.082 128.963,102.939 123.13,101.273 117.059,100.201 122.297,101.868 127.296,104.011 132.058,106.511 136.582,109.368 140.867,112.582 144.915,116.034 148.605,119.843 152.057,124.01 155.153,128.414 157.89,133.057 160.271,137.938 162.176,142.938 163.724,148.176 164.914,153.652 165.628,159.247 165.866,164.961 165.509,171.865 164.557,178.531 162.89,184.96 160.628,191.031 157.771,196.983 154.319,202.459 150.51,207.697 146.105,212.459 141.344,216.744 "
     class="fil42"
     id="_149499472" /><polygon
     transform="translate(-24.5624,-68.29769)"
     style="fill:#7f7f7f"
     points="79.4412,146.509 77.5365,149.485 75.9889,152.699 74.7985,156.032 73.8462,159.604 73.37,163.294 73.1319,166.984 73.2509,170.675 73.8462,174.246 74.6795,177.698 75.8699,181.031 77.4174,184.246 79.2031,187.222 81.3459,190.079 83.8458,192.817 85.1552,194.126 86.5837,195.317 88.0123,196.388 89.4408,197.459 90.9883,198.412 92.5359,199.364 94.0834,200.197 95.7501,200.912 97.2976,201.507 99.0833,202.102 100.75,202.578 102.536,202.935 104.202,203.292 106.107,203.531 107.892,203.65 109.678,203.65 111.464,203.65 113.368,203.531 115.154,203.292 116.94,202.935 118.725,202.578 120.392,202.102 122.059,201.507 123.844,200.912 125.392,200.197 127.058,199.364 128.606,198.412 130.153,197.459 131.582,196.388 133.011,195.317 134.439,194.126 135.749,192.817 138.248,190.079 140.391,187.222 142.177,184.246 143.724,181.031 144.915,177.698 145.748,174.246 146.343,170.675 146.462,166.984 146.343,163.294 145.748,159.723 144.915,156.27 143.724,152.937 142.177,149.723 140.391,146.628 138.248,143.771 135.749,141.033 134.439,139.724 133.011,138.533 131.582,137.462 130.153,136.39 128.606,135.438 127.058,134.486 125.392,133.652 123.844,132.938 122.059,132.343 120.392,131.748 118.725,131.271 116.94,130.914 115.154,130.557 113.368,130.319 111.464,130.2 109.678,130.2 105.988,130.438 102.297,130.914 98.8452,131.867 95.512,133.057 92.2978,134.605 89.3217,136.509 86.4647,138.652 83.8458,141.033 81.4649,143.652 "
     class="fil13"
     id="_149499568" /><polygon
     transform="translate(-24.5624,-68.29769)"
     style="fill:#cecece"
     points="78.7269,160.794 79.4412,157.699 80.5126,154.842 81.822,152.104 83.4886,149.366 85.2743,146.985 87.417,144.604 88.4884,143.533 89.6789,142.462 90.8693,141.509 92.1788,140.557 93.4882,139.724 94.7977,139.009 96.1072,138.295 97.5357,137.7 98.9642,137.105 100.512,136.628 101.94,136.271 103.488,135.914 105.035,135.676 106.583,135.438 108.131,135.319 109.678,135.319 111.226,135.319 112.773,135.438 114.321,135.676 115.868,135.914 117.416,136.271 118.963,136.628 120.392,137.105 121.82,137.7 123.249,138.295 124.678,139.009 125.987,139.724 127.296,140.557 128.606,141.509 129.796,142.462 130.987,143.533 132.177,144.604 134.32,146.985 136.106,149.366 137.772,152.104 139.082,154.842 140.153,157.699 140.867,160.794 141.344,163.889 141.463,166.984 141.344,170.198 140.867,173.294 140.034,176.389 138.963,179.246 137.653,181.984 135.987,184.603 134.201,186.984 132.177,189.245 129.915,191.269 127.416,193.174 124.797,194.721 122.059,196.031 119.083,197.102 116.106,197.935 112.892,198.412 109.678,198.531 108.131,198.531 106.583,198.412 105.035,198.174 103.488,197.935 101.94,197.578 100.512,197.221 98.9642,196.745 97.5357,196.15 96.1072,195.555 94.7977,194.84 93.4882,194.126 92.1788,193.293 90.8693,192.34 89.6789,191.388 88.4884,190.317 87.417,189.245 85.2743,186.984 83.4886,184.484 81.822,181.865 80.5126,179.008 79.4412,176.151 78.7269,173.175 78.2507,170.079 78.1317,166.984 78.2507,163.889 "
     class="fil40"
     id="_149499640" /><polygon
     transform="translate(-24.5624,-68.29769)"
     style="fill:#a3a3a3"
     points="105.512,171.746 106.107,172.936 107.059,174.008 108.012,174.841 109.202,175.436 110.511,175.913 111.94,176.032 113.368,175.913 114.678,175.436 115.868,174.841 116.94,174.008 117.773,172.936 118.368,171.746 118.844,170.437 118.963,169.008 118.844,167.58 118.368,166.27 117.773,165.199 116.94,164.127 115.868,163.294 114.678,162.699 113.368,162.223 111.94,162.104 110.511,162.223 109.202,162.699 108.012,163.294 107.059,164.127 106.107,165.199 105.512,166.27 105.035,167.58 104.916,169.008 105.035,170.437 "
     class="fil24"
     id="_149499712" /><polygon
     transform="translate(-24.5624,-68.29769)"
     style="fill:#a3a3a3"
     points="115.392,167.103 115.392,164.008 132.415,159.128 "
     class="fil24"
     id="_149499784" /><polygon
     transform="translate(-24.5624,-68.29769)"
     style="fill:#a3a3a3"
     points="107.178,161.389 111.226,161.627 91.7026,116.391 "
     class="fil24"
     id="_149499856" /><polygon
     transform="translate(-24.5624,-68.29769)"
     style="fill:#ffffff"
     points="114.083,131.271 113.845,134.962 110.035,134.724 110.273,131.033 "
     class="fil43"
     id="_149499928" /><polygon
     transform="translate(-24.5624,-68.29769)"
     style="fill:#ffffff"
     points="123.368,133.652 122.059,137.224 118.606,135.914 119.797,132.462 "
     class="fil43"
     id="_149500024" /><polygon
     transform="translate(-24.5624,-68.29769)"
     style="fill:#ffffff"
     points="131.582,138.414 129.439,141.509 126.344,139.366 128.487,136.271 "
     class="fil43"
     id="_149500096" /><polygon
     transform="translate(-24.5624,-68.29769)"
     style="fill:#ffffff"
     points="138.248,145.08 135.391,147.461 133.011,144.604 135.868,142.223 "
     class="fil43"
     id="_149500168" /><polygon
     transform="translate(-24.5624,-68.29769)"
     style="fill:#ffffff"
     points="143.01,153.294 139.677,154.842 138.01,151.509 141.344,149.842 "
     class="fil43"
     id="_149500240" /><polygon
     transform="translate(-24.5624,-68.29769)"
     style="fill:#ffffff"
     points="145.391,162.461 141.701,163.056 141.105,159.366 144.796,158.77 "
     class="fil43"
     id="_149500312" /><polygon
     transform="translate(-24.5624,-68.29769)"
     style="fill:#ffffff"
     points="145.391,171.984 141.582,171.627 141.939,167.937 145.748,168.175 "
     class="fil43"
     id="_149500384" /><polygon
     transform="translate(-24.5624,-68.29769)"
     style="fill:#ffffff"
     points="142.772,181.15 139.32,179.841 140.629,176.389 144.082,177.698 "
     class="fil43"
     id="_149500456" /><polygon
     transform="translate(-24.5624,-68.29769)"
     style="fill:#ffffff"
     points="137.891,189.245 134.915,187.103 137.058,184.007 140.153,186.15 "
     class="fil43"
     id="_149500528" /><polygon
     transform="translate(-24.5624,-68.29769)"
     style="fill:#ffffff"
     points="131.106,195.793 128.725,192.936 131.701,190.555 134.082,193.412 "
     class="fil43"
     id="_149500600" /><polygon
     transform="translate(-24.5624,-68.29769)"
     style="fill:#ffffff"
     points="122.892,200.435 121.344,196.983 124.678,195.436 126.225,198.888 "
     class="fil43"
     id="_149500672" /><polygon
     transform="translate(-24.5624,-68.29769)"
     style="fill:#ffffff"
     points="113.607,202.697 113.011,199.007 116.702,198.412 117.297,202.102 "
     class="fil43"
     id="_149500744" /><polygon
     transform="translate(-24.5624,-68.29769)"
     style="fill:#ffffff"
     points="104.202,202.459 104.559,198.769 108.25,199.126 107.892,202.816 "
     class="fil43"
     id="_149500816" /><polygon
     transform="translate(-24.5624,-68.29769)"
     style="fill:#ffffff"
     points="94.9168,199.721 96.3453,196.15 99.7975,197.578 98.488,201.031 "
     class="fil43"
     id="_149500888" /><polygon
     transform="translate(-24.5624,-68.29769)"
     style="fill:#ffffff"
     points="87.0599,194.721 89.2027,191.745 92.2978,193.888 90.036,196.983 "
     class="fil43"
     id="_149500960" /><polygon
     transform="translate(-24.5624,-68.29769)"
     style="fill:#ffffff"
     points="80.5126,187.817 83.4886,185.436 85.8695,188.412 82.8934,190.793 "
     class="fil43"
     id="_149501032" /><polygon
     transform="translate(-24.5624,-68.29769)"
     style="fill:#ffffff"
     points="76.108,179.603 79.5602,178.055 80.9887,181.389 77.5365,182.817 "
     class="fil43"
     id="_149501104" /><polygon
     transform="translate(-24.5624,-68.29769)"
     style="fill:#ffffff"
     points="73.9652,170.318 77.6555,169.722 78.2507,173.532 74.5604,174.008 "
     class="fil43"
     id="_149501176" /><polygon
     transform="translate(-24.5624,-68.29769)"
     style="fill:#ffffff"
     points="74.3223,160.794 78.1317,161.27 77.6555,164.961 73.9652,164.484 "
     class="fil43"
     id="_149501248" /><polygon
     transform="translate(-24.5624,-68.29769)"
     style="fill:#ffffff"
     points="77.2984,151.628 80.7506,153.056 79.3221,156.509 75.8699,155.08 "
     class="fil43"
     id="_149501320" /><polygon
     transform="translate(-24.5624,-68.29769)"
     style="fill:#ffffff"
     points="82.4172,143.652 85.3933,145.914 83.1315,148.89 80.1554,146.628 "
     class="fil43"
     id="_149501392" /><polygon
     transform="translate(-24.5624,-68.29769)"
     style="fill:#ffffff"
     points="89.4408,137.343 91.7026,140.319 88.7265,142.581 86.4647,139.604 "
     class="fil43"
     id="_149501464" /><polygon
     transform="translate(-24.5624,-68.29769)"
     style="fill:#ffffff"
     points="97.0595,133.295 98.488,136.747 95.1548,138.176 93.6073,134.843 "
     class="fil43"
     id="_149501536" /><polygon
     transform="translate(-24.5624,-68.29769)"
     style="fill:#ffffff"
     points="106.226,131.152 106.821,134.843 103.131,135.438 102.536,131.748 "
     class="fil43"
     id="_149501608" /><polygon
     transform="translate(-24.5624,-68.29769)"
     style="fill:#000000"
     points="68.6083,129.248 69.0844,128.772 69.6797,128.176 70.1558,127.7 70.632,127.224 63.2513,119.724 62.7752,120.2 62.18,120.796 61.7038,121.272 61.2276,121.867 "
     class="fil0"
     id="_149501680" /><polygon
     transform="translate(-24.5624,-68.29769)"
     style="fill:#000000"
     points="109.083,100.677 108.488,100.677 107.773,100.677 107.178,100.677 107.178,111.153 107.773,111.153 108.488,111.153 109.083,111.153 109.678,111.153 109.797,111.153 109.916,111.153 110.035,111.153 110.035,100.677 109.916,100.677 109.797,100.677 109.678,100.677 "
     class="fil0"
     id="_149501752" /><polygon
     transform="translate(-24.5624,-68.29769)"
     style="fill:#000000"
     points="165.509,168.294 165.509,168.77 175.985,168.77 176.104,168.294 176.104,167.818 176.104,167.461 176.104,166.984 176.104,166.746 176.104,166.389 176.104,166.151 176.104,165.913 165.509,165.913 165.628,166.151 165.628,166.389 165.628,166.746 165.628,166.984 165.628,167.461 165.628,167.818 "
     class="fil0"
     id="_149501824" /><polygon
     transform="translate(-24.5624,-68.29769)"
     style="fill:#000000"
     points="147.772,126.153 148.367,126.629 148.843,127.105 149.438,127.7 149.915,128.176 157.295,120.796 156.819,120.32 156.343,119.724 155.748,119.248 155.272,118.772 "
     class="fil0"
     id="_149501896" /><polygon
     transform="translate(-24.5624,-68.29769)"
     style="fill:#000000"
     points="43.4902,166.746 43.4902,166.984 43.4902,167.461 43.4902,167.818 43.4902,168.294 43.4902,168.77 53.966,168.77 53.966,168.294 53.966,167.818 53.966,167.461 53.966,166.984 53.966,166.746 53.966,166.389 53.966,166.151 53.966,165.913 43.4902,165.913 43.4902,166.151 43.4902,166.389 "
     class="fil0"
     id="_149576352" /><polygon
     transform="translate(-24.5624,-68.29769)"
     style="fill:#000000"
     points="149.557,206.03 149.081,206.507 148.486,207.102 148.01,207.578 147.415,208.054 154.914,215.554 155.391,215.078 155.867,214.482 156.462,214.006 156.938,213.53 "
     class="fil0"
     id="_149576424" /><polygon
     transform="translate(-24.5624,-68.29769)"
     style="fill:#000000"
     points="109.083,233.172 109.678,233.172 109.797,233.172 109.916,233.172 110.035,233.172 110.035,222.696 109.916,222.696 109.797,222.696 109.678,222.696 109.083,222.696 108.488,222.696 107.773,222.696 107.178,222.696 107.178,233.172 107.773,233.172 108.488,233.172 "
     class="fil0"
     id="_149576496" /><polygon
     transform="translate(-24.5624,-68.29769)"
     style="fill:#000000"
     points="70.9891,206.983 70.513,206.507 70.0368,206.03 69.4416,205.435 68.9654,204.959 61.5847,212.34 62.0609,212.816 62.5371,213.411 63.1323,213.887 63.6085,214.482 "
     class="fil0"
     id="_149576568" /><polygon
     transform="translate(-24.5624,-68.29769)"
     style="fill:#3f3f3f"
     points="84.0838,109.606 84.3219,109.487 84.56,109.368 84.7981,109.368 85.0362,109.249 83.7267,106.034 83.4886,106.153 83.2505,106.153 82.8934,106.272 82.6553,106.392 "
     class="fil19"
     id="_149576640" /><polygon
     transform="translate(-24.5624,-68.29769)"
     style="fill:#3f3f3f"
     points="95.0358,105.796 95.2739,105.796 95.631,105.677 95.8691,105.677 96.1072,105.558 95.3929,102.225 95.1548,102.225 94.9168,102.344 94.5596,102.344 94.3215,102.463 "
     class="fil19"
     id="_149576712" /><polygon
     transform="translate(-24.5624,-68.29769)"
     style="fill:#3f3f3f"
     points="47.8948,156.509 47.8948,156.27 48.0139,155.913 48.0139,155.675 48.0139,155.437 44.5616,154.723 44.5616,154.961 44.5616,155.199 44.4426,155.556 44.4426,155.794 "
     class="fil19"
     id="_149576784" /><polygon
     transform="translate(-24.5624,-68.29769)"
     style="fill:#3f3f3f"
     points="51.228,144.247 51.3471,144.009 51.4661,143.771 51.4661,143.533 51.5851,143.295 48.371,141.985 48.2519,142.223 48.2519,142.462 48.1329,142.7 48.0139,142.938 "
     class="fil19"
     id="_149576856" /><polygon
     transform="translate(-24.5624,-68.29769)"
     style="fill:#3f3f3f"
     points="56.3469,133.89 56.4659,133.652 56.704,133.414 56.823,133.176 56.9421,132.938 54.085,131.033 53.966,131.271 53.7279,131.51 53.6089,131.748 53.4898,131.986 "
     class="fil19"
     id="_149576928" /><polygon
     transform="translate(-24.5624,-68.29769)"
     style="fill:#3f3f3f"
     points="72.8938,116.153 73.1319,115.915 73.37,115.796 73.6081,115.558 73.8462,115.439 71.8224,112.582 71.5843,112.701 71.4653,112.939 71.2272,113.058 70.9891,113.177 "
     class="fil19"
     id="_149577000" /><polygon
     transform="translate(-24.5624,-68.29769)"
     style="fill:#3f3f3f"
     points="167.533,142.342 167.652,142.581 167.771,142.819 167.89,143.176 168.009,143.414 171.223,142.104 171.104,141.866 170.985,141.509 170.866,141.271 170.747,141.033 "
     class="fil19"
     id="_149577072" /><polygon
     transform="translate(-24.5624,-68.29769)"
     style="fill:#3f3f3f"
     points="119.797,104.963 120.035,104.963 120.392,104.963 120.63,105.082 120.868,105.082 121.463,101.63 121.225,101.63 120.987,101.511 120.63,101.511 120.392,101.511 "
     class="fil19"
     id="_149577144" /><polygon
     transform="translate(-24.5624,-68.29769)"
     style="fill:#3f3f3f"
     points="161.224,130.914 161.343,131.152 161.462,131.271 161.7,131.51 161.819,131.748 164.676,129.843 164.557,129.605 164.438,129.367 164.2,129.129 164.081,128.891 "
     class="fil19"
     id="_149577216" /><polygon
     transform="translate(-24.5624,-68.29769)"
     style="fill:#3f3f3f"
     points="171.223,153.89 171.223,154.128 171.342,154.366 171.342,154.723 171.461,154.961 174.795,154.247 174.795,154.009 174.795,153.652 174.676,153.413 174.676,153.175 "
     class="fil19"
     id="_149577288" /><polygon
     transform="translate(-24.5624,-68.29769)"
     style="fill:#3f3f3f"
     points="132.415,108.296 132.653,108.415 132.891,108.534 133.13,108.653 133.368,108.772 134.677,105.558 134.439,105.439 134.201,105.32 133.963,105.201 133.725,105.082 "
     class="fil19"
     id="_149577360" /><polygon
     transform="translate(-24.5624,-68.29769)"
     style="fill:#3f3f3f"
     points="143.01,113.653 143.248,113.772 143.486,114.01 143.724,114.129 143.962,114.248 145.867,111.391 145.629,111.272 145.391,111.034 145.153,110.915 144.915,110.796 "
     class="fil19"
     id="_149577432" /><polygon
     transform="translate(-24.5624,-68.29769)"
     style="fill:#3f3f3f"
     points="144.439,219.244 144.201,219.363 144.082,219.482 143.843,219.72 143.605,219.839 145.51,222.696 145.748,222.577 145.986,222.458 146.224,222.22 146.462,222.101 "
     class="fil19"
     id="_149577504" /><polygon
     transform="translate(-24.5624,-68.29769)"
     style="fill:#3f3f3f"
     points="133.011,225.315 132.772,225.434 132.534,225.434 132.296,225.553 132.058,225.672 133.368,228.887 133.606,228.768 133.844,228.649 134.082,228.649 134.32,228.53 "
     class="fil19"
     id="_149577576" /><polygon
     transform="translate(-24.5624,-68.29769)"
     style="fill:#3f3f3f"
     points="48.49,180.436 48.371,180.198 48.371,179.96 48.2519,179.722 48.2519,179.484 44.7997,180.079 44.9187,180.317 44.9187,180.555 44.9187,180.912 45.0378,181.15 "
     class="fil19"
     id="_149577648" /><polygon
     transform="translate(-24.5624,-68.29769)"
     style="fill:#3f3f3f"
     points="161.938,201.745 161.819,201.983 161.7,202.221 161.462,202.459 161.343,202.697 164.319,204.602 164.438,204.364 164.676,204.126 164.795,204.007 164.914,203.769 "
     class="fil19"
     id="_149577720" /><polygon
     transform="translate(-24.5624,-68.29769)"
     style="fill:#3f3f3f"
     points="167.652,191.269 167.533,191.507 167.414,191.745 167.295,191.983 167.176,192.221 170.509,193.65 170.628,193.412 170.747,193.055 170.747,192.817 170.866,192.579 "
     class="fil19"
     id="_149577792" /><polygon
     transform="translate(-24.5624,-68.29769)"
     style="fill:#3f3f3f"
     points="171.461,178.889 171.342,179.127 171.342,179.365 171.342,179.603 171.223,179.841 174.676,180.436 174.795,180.198 174.795,179.96 174.795,179.722 174.914,179.484 "
     class="fil19"
     id="_149577864" /><polygon
     transform="translate(-24.5624,-68.29769)"
     style="fill:#3f3f3f"
     points="121.701,228.53 121.463,228.649 121.225,228.649 120.868,228.768 120.63,228.768 121.344,232.22 121.582,232.101 121.94,232.101 122.178,232.101 122.416,231.982 "
     class="fil19"
     id="_149577936" /><polygon
     transform="translate(-24.5624,-68.29769)"
     style="fill:#3f3f3f"
     points="58.0135,202.459 57.8944,202.221 57.7754,201.983 57.5373,201.745 57.4182,201.507 54.5612,203.531 54.6803,203.769 54.7993,203.888 55.0374,204.126 55.1564,204.364 "
     class="fil19"
     id="_149578008" /><polygon
     transform="translate(-24.5624,-68.29769)"
     style="fill:#3f3f3f"
     points="51.9423,191.388 51.8232,191.15 51.8232,190.912 51.7042,190.674 51.5851,190.436 48.2519,191.745 48.371,191.983 48.49,192.221 48.6091,192.46 48.7281,192.698 "
     class="fil19"
     id="_149578080" /><polygon
     transform="translate(-24.5624,-68.29769)"
     style="fill:#3f3f3f"
     points="75.1556,219.244 74.9175,219.125 74.6795,219.006 74.4414,218.768 74.2033,218.649 72.2986,221.625 72.5367,221.744 72.7748,221.863 73.0129,222.101 73.2509,222.22 "
     class="fil19"
     id="_149578152" /><polygon
     transform="translate(-24.5624,-68.29769)"
     style="fill:#3f3f3f"
     points="97.4167,228.53 97.1786,228.41 96.9405,228.41 96.5834,228.41 96.3453,228.291 95.631,231.744 95.8691,231.863 96.2262,231.863 96.4643,231.863 96.7024,231.982 "
     class="fil19"
     id="_149578224" /><polygon
     transform="translate(-24.5624,-68.29769)"
     style="fill:#3f3f3f"
     points="85.3933,224.839 85.1552,224.72 84.9171,224.601 84.56,224.482 84.3219,224.363 83.0125,227.577 83.2505,227.696 83.6077,227.815 83.8458,227.934 84.0838,228.053 "
     class="fil19"
     id="_149578296" /><polygon
     transform="translate(-24.5624,-68.29769)"
     style="fill:#3a3a3a"
     points="104.083,172.103 105.274,172.817 106.583,173.413 108.012,173.77 109.44,173.77 110.869,173.532 112.297,172.936 113.607,172.103 114.678,171.032 115.392,169.841 115.987,168.532 116.345,167.103 116.345,165.675 116.106,164.246 115.511,162.818 114.678,161.508 113.607,160.437 112.416,159.723 111.107,159.128 109.678,158.77 108.25,158.77 106.821,159.008 105.393,159.604 104.083,160.437 103.012,161.508 102.297,162.699 101.702,164.008 101.345,165.437 101.345,166.865 101.583,168.294 102.178,169.722 103.012,171.032 "
     class="fil6"
     id="_149578368" /><polygon
     transform="translate(-24.5624,-68.29769)"
     style="fill:#3a3a3a"
     points="109.559,168.651 131.225,153.532 106.94,162.58 106.94,163.651 "
     class="fil6"
     id="_149578440" /><polygon
     transform="translate(-24.5624,-68.29769)"
     style="fill:#000000"
     points="112.892,164.484 112.535,163.889 112.178,163.413 111.821,163.056 111.345,162.699 110.869,162.461 110.273,162.223 109.797,162.104 109.202,162.104 80.9887,113.296 105.035,164.484 104.678,165.437 104.559,166.508 104.678,167.461 105.035,168.532 105.512,169.246 106.107,169.841 106.821,170.318 107.654,170.675 108.488,170.913 109.321,170.913 110.154,170.794 110.988,170.437 112.297,169.246 113.13,167.818 113.368,166.151 "
     class="fil0"
     id="_149578512" /><polygon
     transform="translate(-24.5624,-68.29769)"
     style="fill:#7f7f7f"
     points="108.369,165.675 108.25,165.913 108.131,166.27 108.25,166.508 108.369,166.746 108.607,166.865 108.845,166.984 109.083,166.865 109.321,166.746 109.44,166.508 109.559,166.27 109.44,165.913 109.321,165.675 109.083,165.556 108.845,165.556 108.607,165.556 "
     class="fil13"
     id="_149578584" /><polygon
     transform="translate(-24.5624,-68.29769)"
     style="fill:#bfbfbf"
     points="182.413,144.842 183.366,148.414 184.199,152.104 184.794,155.794 185.27,159.485 185.508,163.175 185.627,166.984 185.508,170.794 185.27,174.484 184.794,178.174 184.199,181.865 183.366,185.436 182.413,189.007 181.223,192.46 179.913,195.912 178.366,199.364 176.818,202.578 174.914,205.792 173.009,209.006 170.866,211.983 168.485,214.959 166.104,217.816 163.486,220.554 160.748,223.173 157.89,225.672 154.914,227.934 151.819,230.077 148.724,232.101 145.51,233.886 142.177,235.553 138.844,237.101 135.391,238.41 131.82,239.601 128.249,240.553 124.678,241.386 120.987,241.981 117.297,242.458 113.487,242.696 109.678,242.815 105.869,242.696 102.178,242.458 98.488,241.981 94.7977,241.386 91.2264,240.553 87.6551,239.601 84.2029,238.41 80.7506,237.101 77.4174,235.553 74.0842,233.886 70.8701,232.101 67.775,230.077 64.6799,227.934 61.7038,225.672 58.8468,223.173 56.1088,220.554 53.4898,217.816 51.109,214.959 48.7281,211.983 46.5853,209.006 44.5616,205.792 42.776,202.578 41.1094,199.364 39.6808,195.912 38.2523,192.46 37.1809,189.007 36.1096,185.436 35.2763,181.865 34.681,178.174 34.2049,174.484 33.9668,170.794 33.8477,166.984 33.9668,163.175 34.2049,159.485 34.681,155.794 35.2763,152.104 36.1096,148.414 37.1809,144.842 38.2523,141.39 39.6808,137.938 41.1094,134.605 42.776,131.271 44.5616,128.057 46.5853,124.962 48.7281,121.867 51.109,118.891 53.4898,116.034 56.1088,113.296 58.8468,110.677 61.7038,108.296 64.6799,105.915 67.775,103.773 70.9891,101.868 74.2033,99.9631 77.6555,98.2965 80.9887,96.868 84.56,95.5586 88.1313,94.3681 91.7026,93.4158 95.2739,92.5825 98.9642,91.8682 102.655,91.3921 106.464,91.154 110.154,91.0349 110.154,90.3207 106.345,90.4397 102.655,90.6778 98.8452,91.154 95.1548,91.8682 91.4645,92.7015 87.8932,93.6539 84.3219,94.8443 80.7506,96.1538 77.2984,97.7013 73.9652,99.3679 70.632,101.273 67.4178,103.296 64.3227,105.439 61.2276,107.701 58.3706,110.201 55.6326,112.82 53.0137,115.558 50.5138,118.534 48.1329,121.51 45.9901,124.486 43.9664,127.7 42.1807,130.914 40.3951,134.248 38.9666,137.7 37.5381,141.152 36.4667,144.723 35.3953,148.295 34.562,151.866 33.9668,155.675 33.4906,159.366 33.2525,163.175 33.1335,166.984 33.2525,170.794 33.4906,174.603 33.9668,178.293 34.562,181.984 35.3953,185.674 36.4667,189.245 37.5381,192.817 38.9666,196.269 40.3951,199.721 42.1807,203.054 43.9664,206.268 45.9901,209.364 48.1329,212.459 50.5138,215.435 53.0137,218.411 55.6326,221.149 58.3706,223.768 61.3467,226.268 64.3227,228.53 67.2988,230.672 70.513,232.696 73.7271,234.601 77.0603,236.267 80.5126,237.696 83.9648,239.124 87.417,240.196 91.1074,241.267 94.6787,242.1 98.369,242.696 102.059,243.172 105.869,243.41 109.678,243.529 113.487,243.41 117.297,243.172 120.987,242.696 124.797,242.1 128.368,241.267 132.058,240.196 135.51,239.124 139.082,237.696 142.415,236.267 145.748,234.601 149.081,232.696 152.176,230.672 155.272,228.53 158.248,226.268 161.224,223.768 163.962,221.149 166.581,218.411 169.081,215.435 171.342,212.459 173.485,209.364 175.509,206.268 177.414,203.054 179.08,199.721 180.509,196.269 181.937,192.817 183.009,189.245 184.08,185.674 184.913,181.984 185.508,178.293 185.985,174.603 186.223,170.794 186.342,166.984 186.223,163.175 185.985,159.366 185.508,155.675 184.913,151.866 184.08,148.295 183.009,144.604 181.937,141.152 180.509,137.581 179.08,134.248 177.414,130.914 175.509,127.7 173.485,124.486 171.342,121.391 169.081,118.415 166.581,115.558 163.962,112.82 161.224,110.201 158.367,107.701 155.391,105.439 152.295,103.296 149.2,101.273 145.986,99.3679 142.653,97.7013 139.32,96.1538 135.868,94.8443 132.296,93.6539 128.725,92.7015 125.154,91.8682 121.463,91.154 117.773,90.6778 113.964,90.4397 110.154,90.3207 110.154,91.0349 113.964,91.154 117.654,91.3921 121.344,91.8682 124.916,92.5825 128.606,93.4158 132.058,94.3681 135.629,95.5586 138.963,96.868 142.415,98.2965 145.629,99.9631 148.843,101.868 151.938,103.773 155.033,105.915 157.89,108.296 160.748,110.677 163.486,113.296 166.104,116.034 168.485,118.891 170.866,121.867 173.009,124.843 174.914,128.057 176.818,131.271 178.366,134.486 179.913,137.938 181.223,141.39 "
     class="fil14"
     id="_149578656" /><polygon
     transform="translate(-24.5624,-68.29769)"
     style="fill:#7f7f7f"
     points="175.271,167.818 175.271,167.341 175.271,166.865 175.271,166.627 175.271,166.389 175.271,166.151 175.271,165.913 165.866,165.913 165.866,166.627 165.866,167.341 165.866,168.056 165.747,168.77 175.271,168.77 175.271,168.294 "
     class="fil13"
     id="_149578728" /><polygon
     transform="translate(-24.5624,-68.29769)"
     style="fill:#7f7f7f"
     points="157.057,120.915 156.581,120.439 156.105,119.843 155.51,119.367 155.033,118.891 151.105,122.819 151.581,123.415 152.057,124.01 152.415,124.605 152.891,125.2 "
     class="fil13"
     id="_149578800" /><polygon
     transform="translate(-24.5624,-68.29769)"
     style="fill:#7f7f7f"
     points="154.557,215.197 155.153,214.721 155.629,214.244 156.224,213.649 156.7,213.173 150.748,207.34 150.272,207.816 149.796,208.411 149.319,208.887 148.843,209.483 "
     class="fil13"
     id="_149578872" /><polygon
     transform="translate(-24.5624,-68.29769)"
     style="fill:#7f7f7f"
     points="109.083,233.172 109.678,233.172 109.797,233.172 109.916,233.172 110.035,233.172 110.035,231.148 109.321,231.268 108.607,231.387 107.892,231.506 107.178,231.625 107.178,233.172 107.773,233.172 108.488,233.172 "
     class="fil13"
     id="_149578944" /><polygon
     transform="translate(-24.5624,-68.29769)"
     style="fill:#ffffff"
     points="144.439,98.8918 144.558,98.8918 144.796,98.7727 143.01,97.9394 141.224,97.1061 139.439,96.2728 137.653,95.5586 135.868,94.8443 133.963,94.2491 132.177,93.6539 130.273,93.0587 130.034,93.1777 129.796,93.2967 129.558,93.4158 129.32,93.5348 131.225,94.13 133.13,94.7253 135.034,95.3205 136.82,95.9157 138.606,96.749 140.391,97.4632 142.177,98.2965 143.962,99.1298 144.201,99.0108 "
     class="fil43"
     id="_149579016" /></g>
</svg>
