<?xml version="1.0" encoding="UTF-8" standalone="no"?>
<!-- Creator: CorelDRAW -->

<svg
   xmlns:dc="http://purl.org/dc/elements/1.1/"
   xmlns:cc="http://creativecommons.org/ns#"
   xmlns:rdf="http://www.w3.org/1999/02/22-rdf-syntax-ns#"
   xmlns:svg="http://www.w3.org/2000/svg"
   xmlns="http://www.w3.org/2000/svg"
   xmlns:sodipodi="http://sodipodi.sourceforge.net/DTD/sodipodi-0.dtd"
   xmlns:inkscape="http://www.inkscape.org/namespaces/inkscape"
   xml:space="preserve"
   width="261.27658"
   height="261.44208"
   style="clip-rule:evenodd;fill-rule:evenodd;image-rendering:optimizeQuality;shape-rendering:geometricPrecision;text-rendering:geometricPrecision"
   viewBox="0 0 187.71222 187.83113"
   version="1.1"
   id="svg206"
   sodipodi:docname="daoshu_small.svg"
   inkscape:version="0.92.3 (2405546, 2018-03-11)"><metadata
   id="metadata210"><rdf:RDF><cc:Work
       rdf:about=""><dc:format>image/svg+xml</dc:format><dc:type
         rdf:resource="http://purl.org/dc/dcmitype/StillImage" /><dc:title></dc:title></cc:Work></rdf:RDF></metadata><sodipodi:namedview
   pagecolor="#ffffff"
   bordercolor="#666666"
   borderopacity="1"
   objecttolerance="10"
   gridtolerance="10"
   guidetolerance="10"
   inkscape:pageopacity="0"
   inkscape:pageshadow="2"
   inkscape:window-width="2190"
   inkscape:window-height="1053"
   id="namedview208"
   showgrid="false"
   fit-margin-top="12"
   fit-margin-left="12"
   fit-margin-right="12"
   fit-margin-bottom="12"
   inkscape:zoom="1.7878788"
   inkscape:cx="147.28471"
   inkscape:cy="133.51187"
   inkscape:window-x="584"
   inkscape:window-y="33"
   inkscape:window-maximized="0"
   inkscape:current-layer="svg206"
   inkscape:pagecheckerboard="true" />
 <defs
   id="defs4">
  <style
   type="text/css"
   id="style2">
   <![CDATA[
    .fil0 {fill:black}
    .fil30 {fill:#050505}
    .fil31 {fill:#070707}
    .fil1 {fill:#0A0A0A}
    .fil32 {fill:#0C0C0C}
    .fil21 {fill:#0F0F0F}
    .fil2 {fill:#141414}
    .fil33 {fill:#161616}
    .fil3 {fill:#1C1C1C}
    .fil20 {fill:#212121}
    .fil34 {fill:#232323}
    .fil4 {fill:#262626}
    .fil35 {fill:#282828}
    .fil36 {fill:#2B2B2B}
    .fil5 {fill:#303030}
    .fil37 {fill:#333333}
    .fil38 {fill:#383838}
    .fil6 {fill:#3A3A3A}
    .fil39 {fill:#3D3D3D}
    .fil19 {fill:#3F3F3F}
    .fil7 {fill:#444444}
    .fil8 {fill:#4F4F4F}
    .fil9 {fill:#595959}
    .fil10 {fill:#606060}
    .fil11 {fill:#6B6B6B}
    .fil18 {fill:#707070}
    .fil12 {fill:#757575}
    .fil13 {fill:#7F7F7F}
    .fil27 {fill:#898989}
    .fil17 {fill:#8E8E8E}
    .fil26 {fill:#919191}
    .fil29 {fill:#939393}
    .fil25 {fill:#9B9B9B}
    .fil16 {fill:#9E9E9E}
    .fil41 {fill:#A0A0A0}
    .fil24 {fill:#A3A3A3}
    .fil28 {fill:#AAAAAA}
    .fil23 {fill:#ADADAD}
    .fil15 {fill:#AFAFAF}
    .fil22 {fill:#B5B5B5}
    .fil14 {fill:#BFBFBF}
    .fil46 {fill:#C4C4C4}
    .fil40 {fill:#CECECE}
    .fil44 {fill:lightgrey}
    .fil45 {fill:#D8D8D8}
    .fil42 {fill:#EAEAEA}
    .fil43 {fill:white}
   ]]>
  </style>
 
  
  
 
   
   
   
   
   
   
   
   
   
   
   
   
   
   
   
   
   
   
   
   
   
   
   
   
   
   
   
   
   
   
   
   
   
   
   
   
   
   
   
   
   
   
   
   
   
   
   
   
   
   
   
   
   
   
   
   
   
   
   
   
   
   
   
   
   
   
   
   
   
   
   
   
   
   
   
   
   
   
   
   
   
   
   
   
   
   
   
   
   
   
   
   
   
   
   
   
   
   
   
   
   
   
   
   
   
   
   
   
   
   
   
   
   
   
   
   
   
   
   
   
   
   
   
   
   
   
   
   
   
   
   
   
   
   
   
   
   
   
   
   
   
   
   
   
   
   
   
   
   
   
   
   
   
   
   
   
   
   
   
   
   
   
   
   
   
   
   
   
   
   
   
   
   
   
   
   
   
   
   
   
   
   
   
   
   
   
   
   
   
   
   
   
   
   
   
   
   
  </defs>
 <polygon
   id="_149441232"
   class="fil14"
   points="61.8228,90.0826 66.3465,99.3679 67.1798,99.0108 62.5371,89.6064 "
   style="fill:#bfbfbf"
   transform="translate(-15.941089,-73.009189)" /><polygon
   id="_149442864"
   class="fil14"
   points="157.176,90.0826 152.653,99.3679 151.819,99.0108 156.343,89.6064 "
   style="fill:#bfbfbf"
   transform="translate(-15.941089,-73.009189)" /><polygon
   id="_149444520"
   class="fil0"
   points="55.6326,101.154 52.5375,103.892 49.5614,106.63 46.7044,109.606 44.0854,112.701 41.4665,115.915 39.0856,119.367 36.9429,122.819 34.8001,126.391 33.0144,130.081 31.2288,133.771 29.6812,137.7 28.3718,141.628 27.3004,145.676 26.348,149.842 25.5147,154.009 25.0386,158.294 24.6814,162.58 24.5624,166.984 24.6814,171.151 24.9195,175.436 25.5147,179.603 26.229,183.65 27.0623,187.698 28.2527,191.745 29.4432,195.674 30.9907,199.483 32.6573,203.292 34.562,206.983 36.5857,210.673 38.8475,214.125 41.2284,217.578 43.8473,220.911 46.5853,224.125 49.5614,227.22 52.6565,230.196 55.8707,232.934 59.0848,235.553 62.5371,237.934 66.1084,240.196 69.6797,242.219 73.37,244.005 77.1794,245.791 80.9887,247.219 84.9171,248.529 88.9646,249.6 93.0121,250.552 97.0595,251.267 101.226,251.862 105.512,252.1 109.678,252.219 113.964,252.1 118.13,251.862 122.416,251.267 126.463,250.552 130.511,249.6 134.558,248.529 138.486,247.219 142.415,245.791 146.224,244.005 149.915,242.219 153.486,240.196 157.057,237.934 160.509,235.553 163.724,232.934 166.938,230.196 170.033,227.22 173.009,224.125 175.747,220.911 178.366,217.578 180.747,214.125 183.009,210.673 185.032,206.983 186.818,203.292 188.604,199.483 190.032,195.674 191.342,191.745 192.413,187.698 193.365,183.65 194.08,179.603 194.675,175.436 194.913,171.151 195.032,166.984 194.913,162.699 194.675,158.532 194.08,154.366 193.365,150.199 192.413,146.152 191.342,142.223 190.032,138.176 188.604,134.367 186.818,130.557 185.032,126.867 183.009,123.177 180.747,119.724 178.366,116.272 175.747,112.939 173.009,109.725 170.033,106.63 166.938,103.654 163.724,100.916 160.509,98.2965 157.057,95.9157 153.486,93.6539 149.915,91.6301 146.224,89.8445 142.415,88.0589 138.486,86.6303 134.558,85.3209 130.511,84.2495 126.463,83.2971 122.416,82.5829 118.13,81.9877 113.964,81.7496 109.678,81.6305 105.274,81.7496 100.988,82.1067 96.7024,82.5829 92.5359,83.4162 88.4884,84.3685 84.441,85.4399 80.5126,86.8684 76.5841,88.2969 72.7748,90.0826 69.2035,91.9873 65.6322,94.011 62.18,96.2728 58.8468,98.6537 "
   style="fill:#000000"
   transform="translate(-15.941089,-73.009189)" /><polygon
   id="_149444592"
   class="fil0"
   points="56.823,102.701 53.7279,105.32 50.8709,108.058 48.1329,111.034 45.5139,114.01 43.014,117.105 40.7522,120.439 38.4904,123.772 36.5857,127.343 34.681,130.914 33.0144,134.605 31.5859,138.414 30.2765,142.223 29.086,146.152 28.1337,150.199 27.4194,154.366 26.9433,158.532 26.5861,162.699 26.4671,166.984 26.5861,171.151 26.8242,175.198 27.4194,179.246 28.0146,183.293 28.967,187.222 30.0384,191.15 31.3478,195.078 32.7764,198.769 34.443,202.459 36.2286,206.149 38.2523,209.602 40.3951,213.054 42.776,216.387 45.2759,219.72 48.0139,222.815 50.8709,225.792 53.847,228.649 56.9421,231.387 60.2753,233.886 63.6085,236.267 67.0607,238.41 70.513,240.434 74.2033,242.338 77.8936,243.886 81.5839,245.434 85.5124,246.624 89.4408,247.695 93.3692,248.648 97.4167,249.243 101.464,249.838 105.512,250.076 109.678,250.195 113.845,250.076 118.011,249.838 122.059,249.243 126.106,248.648 130.034,247.695 133.963,246.624 137.772,245.434 141.582,243.886 145.272,242.338 148.962,240.434 152.534,238.41 155.986,236.267 159.319,233.886 162.533,231.387 165.747,228.649 168.723,225.792 171.58,222.815 174.318,219.72 176.818,216.387 179.199,213.054 181.342,209.602 183.366,206.149 185.151,202.459 186.818,198.769 188.246,195.078 189.556,191.15 190.627,187.222 191.58,183.293 192.175,179.246 192.77,175.198 193.008,171.151 193.127,166.984 193.008,162.818 192.77,158.651 192.175,154.604 191.58,150.556 190.627,146.628 189.556,142.7 188.246,138.89 186.818,135.081 185.151,131.391 183.366,127.7 181.342,124.248 179.199,120.796 176.818,117.462 174.318,114.129 171.58,111.034 168.723,108.058 165.747,105.201 162.533,102.463 159.319,99.9631 155.986,97.5823 152.534,95.4395 148.962,93.4158 145.272,91.6301 141.582,89.9635 137.772,88.535 133.963,87.2256 130.034,86.1542 126.106,85.2018 122.059,84.6066 118.011,84.0114 113.845,83.7733 109.678,83.6543 105.393,83.7733 101.226,84.1304 97.0595,84.6066 92.893,85.3209 88.9646,86.2732 85.0362,87.4636 81.1078,88.7731 77.2984,90.2016 73.6081,91.8682 70.0368,93.7729 66.5845,95.6776 63.2513,97.9394 59.9181,100.201 "
   style="fill:#000000"
   transform="translate(-15.941089,-73.009189)" /><polygon
   id="_149497888"
   class="fil30"
   points="57.0611,102.939 54.085,105.558 51.109,108.296 48.371,111.272 45.752,114.248 43.3712,117.343 40.9903,120.677 38.8475,124.01 36.8238,127.462 35.0382,131.033 33.3716,134.724 31.824,138.533 30.5145,142.342 29.4432,146.271 28.4908,150.318 27.7766,154.366 27.3004,158.532 26.9433,162.699 26.8242,166.984 26.9433,171.151 27.1813,175.198 27.7766,179.246 28.3718,183.174 29.3241,187.222 30.3955,191.031 31.705,194.84 33.1335,198.65 34.8001,202.34 36.5857,205.911 38.6095,209.483 40.7522,212.816 43.1331,216.149 45.633,219.482 48.371,222.577 51.228,225.553 54.2041,228.41 57.2992,231.029 60.5134,233.529 63.8466,235.91 67.2988,238.053 70.751,240.077 74.3223,241.862 78.0127,243.529 81.822,244.957 85.6314,246.267 89.5598,247.338 93.4882,248.291 97.4167,248.886 101.464,249.481 105.512,249.719 109.678,249.838 113.845,249.719 117.892,249.481 121.94,248.886 125.987,248.291 129.915,247.338 133.844,246.267 137.653,244.957 141.463,243.529 145.153,241.862 148.724,240.077 152.295,238.053 155.629,235.91 158.962,233.529 162.295,231.029 165.39,228.41 168.366,225.553 171.223,222.577 173.961,219.482 176.461,216.149 178.842,212.816 180.985,209.483 183.009,205.911 184.794,202.34 186.461,198.65 187.889,194.84 189.08,191.031 190.151,187.222 191.103,183.174 191.699,179.246 192.294,175.198 192.532,171.151 192.651,166.984 192.532,162.818 192.294,158.77 191.699,154.723 191.103,150.675 190.151,146.747 189.08,142.819 187.889,139.009 186.461,135.2 184.794,131.51 183.009,127.938 180.985,124.367 178.842,121.034 176.461,117.701 173.961,114.367 171.223,111.272 168.366,108.296 165.39,105.439 162.295,102.82 158.962,100.32 155.629,97.9394 152.295,95.7966 148.724,93.7729 145.153,91.9873 141.463,90.3207 137.653,88.8922 133.844,87.5827 129.915,86.5113 125.987,85.5589 121.94,84.9637 117.892,84.3685 113.845,84.1304 109.678,84.0114 105.393,84.1304 101.226,84.4876 97.0595,84.9637 93.0121,85.678 89.0836,86.6303 85.1552,87.7017 81.2268,89.0112 77.5365,90.5588 73.8462,92.2254 70.2749,94.011 66.8226,96.0347 63.3704,98.1775 60.1562,100.558 "
   style="fill:#050505"
   transform="translate(-15.941089,-73.009189)" /><polygon
   id="_149497984"
   class="fil31"
   points="57.2992,103.296 54.3231,105.915 51.4661,108.653 48.7281,111.51 46.1092,114.486 43.7283,117.701 41.3474,120.915 39.2047,124.248 37.3,127.7 35.3953,131.271 33.8477,134.962 32.3002,138.652 30.9907,142.462 29.9193,146.39 28.967,150.437 28.2527,154.485 27.7766,158.532 27.4194,162.699 27.3004,166.984 27.4194,171.032 27.6575,175.079 28.2527,179.127 28.8479,183.174 29.8003,187.103 30.8717,190.912 32.0621,194.721 33.4906,198.412 35.1572,202.102 36.9429,205.673 38.9666,209.245 41.1094,212.578 43.4902,215.911 45.9901,219.125 48.6091,222.22 51.4661,225.196 54.4422,228.053 57.5373,230.672 60.7514,233.172 64.0846,235.553 67.4178,237.696 70.9891,239.72 74.5604,241.505 78.2507,243.172 81.9411,244.6 85.7504,245.91 89.5598,246.981 93.4882,247.934 97.5357,248.529 101.583,249.124 105.631,249.362 109.678,249.481 113.845,249.362 117.892,249.124 121.94,248.529 125.987,247.934 129.915,246.981 133.844,245.91 137.653,244.6 141.344,243.172 145.034,241.505 148.605,239.72 152.176,237.696 155.51,235.553 158.843,233.172 162.057,230.672 165.152,228.053 168.128,225.196 170.985,222.22 173.604,219.125 176.104,215.911 178.485,212.578 180.628,209.245 182.651,205.673 184.437,202.102 186.104,198.412 187.532,194.721 188.723,190.912 189.794,187.103 190.746,183.174 191.342,179.127 191.937,175.079 192.175,171.032 192.294,166.984 192.175,162.818 191.937,158.77 191.342,154.723 190.746,150.795 189.794,146.866 188.723,142.938 187.532,139.128 186.104,135.438 184.437,131.748 182.651,128.176 180.628,124.605 178.485,121.272 176.104,117.939 173.604,114.725 170.985,111.629 168.128,108.653 165.152,105.796 162.057,103.177 158.843,100.677 155.51,98.2965 152.176,96.1538 148.605,94.13 145.034,92.3444 141.344,90.6778 137.653,89.2493 133.844,88.0589 129.915,86.9875 125.987,86.0351 121.94,85.4399 117.892,84.8447 113.845,84.6066 109.678,84.4876 105.393,84.6066 101.226,84.9637 97.1786,85.4399 93.1311,86.1542 89.0836,87.1065 85.2743,88.1779 81.4649,89.4874 77.6555,91.0349 74.0842,92.5825 70.513,94.4872 67.0607,96.3919 63.7275,98.6537 60.3943,100.916 "
   style="fill:#070707"
   transform="translate(-15.941089,-73.009189)" /><polygon
   id="_149498080"
   class="fil32"
   points="57.5373,103.654 54.5612,106.272 51.7042,108.891 49.0852,111.748 46.4663,114.844 43.9664,117.939 41.7046,121.153 39.5618,124.486 37.5381,127.938 35.7524,131.391 34.0858,135.081 32.6573,138.771 31.3478,142.581 30.2765,146.509 29.3241,150.437 28.6099,154.485 28.1337,158.651 27.7766,162.818 27.6575,166.984 27.7766,171.032 28.0146,175.079 28.6099,179.127 29.2051,183.055 30.1574,186.984 31.2288,190.793 32.4192,194.602 33.8477,198.293 35.5143,201.983 37.3,205.554 39.3237,209.006 41.4665,212.459 43.7283,215.673 46.2282,218.887 48.8472,221.982 51.7042,224.958 54.6803,227.815 57.7754,230.434 60.9895,232.934 64.3227,235.196 67.6559,237.339 71.1082,239.362 74.6795,241.148 78.3698,242.815 82.0601,244.243 85.8695,245.434 89.6789,246.505 93.6073,247.457 97.5357,248.053 101.583,248.648 105.631,248.886 109.678,249.005 113.845,248.886 117.892,248.648 121.94,248.053 125.868,247.457 129.796,246.505 133.606,245.434 137.415,244.243 141.224,242.815 144.796,241.148 148.367,239.362 151.819,237.339 155.272,235.196 158.605,232.934 161.7,230.434 164.795,227.815 167.771,224.958 170.628,221.982 173.247,218.887 175.747,215.673 178.128,212.459 180.271,209.006 182.175,205.554 184.08,201.983 185.627,198.293 187.056,194.602 188.365,190.793 189.437,186.984 190.27,183.055 190.984,179.127 191.461,175.079 191.699,171.032 191.818,166.984 191.699,162.937 191.461,158.889 190.984,154.842 190.27,150.795 189.437,146.866 188.365,143.057 187.056,139.247 185.627,135.557 184.08,131.867 182.175,128.295 180.271,124.843 178.128,121.391 175.747,118.177 173.247,114.963 170.628,111.867 167.771,108.891 164.795,106.034 161.7,103.415 158.605,100.916 155.272,98.6537 151.819,96.5109 148.367,94.4872 144.796,92.7015 141.224,91.0349 137.415,89.6064 133.606,88.416 129.796,87.3446 125.868,86.3922 121.94,85.797 117.892,85.2018 113.845,84.9637 109.678,84.8447 105.512,84.9637 101.345,85.3209 97.1786,85.797 93.2501,86.5113 89.2027,87.4636 85.3933,88.535 81.5839,89.8445 77.7746,91.273 74.2033,92.9396 70.632,94.7253 67.1798,96.749 63.8466,98.8918 60.6324,101.154 "
   style="fill:#0c0c0c"
   transform="translate(-15.941089,-73.009189)" /><polygon
   id="_149498176"
   class="fil21"
   points="57.8944,103.892 54.9183,106.511 52.0613,109.129 49.3233,111.987 46.8234,114.963 44.3235,118.058 42.0617,121.272 39.9189,124.605 38.0142,128.057 36.2286,131.51 34.562,135.2 33.1335,138.89 31.824,142.7 30.7526,146.509 29.8003,150.556 29.086,154.485 28.6099,158.651 28.2527,162.818 28.1337,166.984 28.2527,171.032 28.4908,175.079 28.967,179.008 29.6812,182.936 30.5145,186.865 31.5859,190.674 32.8954,194.483 34.3239,198.174 35.8715,201.864 37.6571,205.316 39.6808,208.887 41.8236,212.221 44.0854,215.554 46.5853,218.649 49.2043,221.744 52.0613,224.72 55.0374,227.577 58.1325,230.196 61.2276,232.577 64.5608,234.958 67.894,237.101 71.3463,239.005 74.9175,240.791 78.6079,242.458 82.2982,243.886 85.9885,245.076 89.7979,246.148 93.7263,247.1 97.6547,247.814 101.583,248.291 105.631,248.529 109.678,248.648 113.726,248.529 117.773,248.291 121.82,247.814 125.749,247.1 129.677,246.148 133.487,245.076 137.296,243.886 140.986,242.458 144.677,240.791 148.248,239.005 151.7,237.101 155.033,234.958 158.367,232.577 161.462,230.196 164.557,227.577 167.533,224.72 170.39,221.744 173.009,218.649 175.39,215.554 177.771,212.221 179.913,208.887 181.818,205.316 183.604,201.864 185.27,198.174 186.699,194.483 187.889,190.674 188.961,186.865 189.913,182.936 190.627,179.008 191.103,175.079 191.342,171.032 191.461,166.984 191.342,162.937 191.103,158.889 190.627,154.842 189.913,150.914 188.961,146.985 187.889,143.176 186.699,139.366 185.27,135.676 183.604,132.105 181.818,128.533 179.913,125.081 177.771,121.629 175.39,118.415 173.009,115.201 170.39,112.225 167.533,109.249 164.557,106.392 161.462,103.773 158.367,101.273 155.033,99.0108 151.7,96.868 148.248,94.8443 144.677,93.0587 140.986,91.3921 137.296,89.9635 133.487,88.7731 129.677,87.7017 125.749,86.7494 121.82,86.1542 117.773,85.5589 113.726,85.3209 109.678,85.2018 105.512,85.3209 101.345,85.678 97.2976,86.1542 93.2501,86.8684 89.3217,87.8208 85.5124,88.8922 81.703,90.2016 78.0127,91.6301 74.4414,93.2967 70.8701,95.0824 67.4178,97.1061 64.2037,99.1298 60.9895,101.511 "
   style="fill:#0f0f0f"
   transform="translate(-15.941089,-73.009189)" /><polygon
   id="_149498248"
   class="fil2"
   points="58.1325,104.249 55.1564,106.868 52.2994,109.487 49.6805,112.344 47.0615,115.32 44.6806,118.296 42.4188,121.51 40.2761,124.843 38.3714,128.295 36.5857,131.748 34.9191,135.319 33.4906,139.009 32.1811,142.819 31.1098,146.628 30.1574,150.556 29.4432,154.604 28.967,158.651 28.6099,162.818 28.4908,166.984 28.6099,171.032 28.8479,175.079 29.3241,179.008 30.0384,182.936 30.8717,186.745 31.9431,190.555 33.2525,194.364 34.681,198.055 36.2286,201.626 38.0142,205.197 39.9189,208.649 42.0617,211.983 44.4426,215.197 46.8234,218.411 49.4424,221.387 52.2994,224.363 55.2755,227.22 58.2515,229.839 61.4657,232.22 64.6799,234.601 68.0131,236.743 71.4653,238.648 75.0366,240.434 78.7269,241.981 82.2982,243.41 86.1076,244.719 89.9169,245.791 93.7263,246.624 97.6547,247.338 101.702,247.814 105.631,248.053 109.678,248.172 113.726,248.053 117.773,247.814 121.701,247.338 125.749,246.624 129.558,245.791 133.368,244.719 137.177,243.41 140.867,241.981 144.439,240.434 148.01,238.648 151.462,236.743 154.795,234.601 158.01,232.22 161.224,229.839 164.2,227.22 167.176,224.363 170.033,221.387 172.652,218.411 175.033,215.197 177.414,211.983 179.556,208.649 181.461,205.197 183.247,201.626 184.794,198.055 186.223,194.364 187.532,190.555 188.604,186.745 189.437,182.936 190.151,179.008 190.627,175.079 190.865,171.032 190.984,166.984 190.865,162.937 190.627,158.889 190.151,154.961 189.437,151.033 188.604,147.104 187.532,143.295 186.223,139.604 184.794,135.914 183.247,132.224 181.461,128.772 179.556,125.319 177.414,121.867 175.033,118.653 172.652,115.439 170.033,112.463 167.176,109.487 164.2,106.63 161.224,104.011 158.01,101.63 154.795,99.2489 151.462,97.1061 148.01,95.2014 144.439,93.4158 140.867,91.8682 137.177,90.4397 133.368,89.1302 129.558,88.0589 125.749,87.2256 121.701,86.5113 117.773,86.0351 113.726,85.797 109.678,85.678 105.512,85.797 101.464,86.1542 97.4167,86.6303 93.3692,87.3446 89.4408,88.2969 85.6314,89.3683 81.822,90.5588 78.1317,92.1063 74.5604,93.6539 71.1082,95.4395 67.6559,97.4632 64.3227,99.606 61.2276,101.868 "
   style="fill:#141414"
   transform="translate(-15.941089,-73.009189)" /><polygon
   id="_149498320"
   class="fil33"
   points="58.3706,104.487 55.5136,107.106 52.6565,109.725 50.0376,112.582 47.4186,115.558 45.0378,118.534 42.776,121.748 40.6332,125.081 38.7285,128.414 36.9429,131.867 35.2763,135.557 33.8477,139.128 32.6573,142.938 31.4669,146.747 30.6336,150.675 29.9193,154.723 29.4432,158.77 29.086,162.818 28.967,166.984 29.086,171.032 29.3241,174.96 29.8003,178.889 30.5145,182.817 31.3478,186.745 32.4192,190.436 33.6097,194.245 35.0382,197.816 36.5857,201.507 38.3714,204.959 40.3951,208.411 42.4188,211.744 44.7997,214.959 47.1805,218.173 49.9185,221.149 52.6565,224.125 55.5136,226.863 58.6087,229.482 61.7038,231.982 65.037,234.244 68.3702,236.386 71.7034,238.291 75.2747,240.077 78.846,241.624 82.5363,243.053 86.2266,244.362 90.036,245.434 93.8454,246.267 97.7738,246.981 101.702,247.457 105.631,247.695 109.678,247.814 113.726,247.695 117.773,247.457 121.701,246.981 125.63,246.267 129.439,245.434 133.249,244.362 137.058,243.053 140.748,241.624 144.32,240.077 147.891,238.291 151.224,236.386 154.557,234.244 157.89,231.982 160.986,229.482 164.081,226.863 166.938,224.125 169.676,221.149 172.295,218.173 174.795,214.959 177.056,211.744 179.199,208.411 181.104,204.959 182.889,201.507 184.556,197.816 185.866,194.245 187.175,190.436 188.246,186.745 189.08,182.817 189.794,178.889 190.27,174.96 190.508,171.032 190.627,166.984 190.508,162.937 190.27,159.008 189.794,154.961 189.08,151.152 188.246,147.223 187.175,143.414 185.866,139.724 184.556,136.033 182.889,132.462 181.104,128.891 179.199,125.438 177.056,122.105 174.795,118.891 172.295,115.677 169.676,112.701 166.938,109.725 164.081,106.987 160.986,104.368 157.89,101.868 154.557,99.606 151.224,97.4632 147.891,95.5586 144.32,93.7729 140.748,92.1063 137.058,90.7968 133.249,89.4874 129.439,88.416 125.63,87.5827 121.701,86.8684 117.773,86.3922 113.726,86.1542 109.678,86.0351 105.512,86.1542 101.464,86.5113 97.4167,86.9875 93.4882,87.7017 89.5598,88.535 85.7504,89.7255 81.9411,90.9159 78.3698,92.4634 74.7985,94.011 71.2272,95.7966 67.894,97.8204 64.6799,99.8441 61.4657,102.106 "
   style="fill:#161616"
   transform="translate(-15.941089,-73.009189)" /><polygon
   id="_149498416"
   class="fil3"
   points="58.6087,104.844 55.6326,107.463 52.8946,110.082 50.2757,112.939 47.6567,115.796 45.2759,118.891 43.014,121.986 40.9903,125.319 39.0856,128.653 37.3,132.105 35.6334,135.676 34.2049,139.366 32.8954,143.057 31.824,146.866 30.9907,150.795 30.2765,154.723 29.6812,158.77 29.4432,162.818 29.3241,166.984 29.4432,171.032 29.6812,174.96 30.1574,178.889 30.8717,182.817 31.705,186.626 32.7764,190.436 33.9668,194.126 35.3953,197.697 36.9429,201.269 38.7285,204.84 40.6332,208.173 42.776,211.506 45.0378,214.721 47.5377,217.816 50.1566,220.911 52.8946,223.768 55.7516,226.506 58.8468,229.125 61.9419,231.625 65.156,233.886 68.4892,236.029 71.9415,237.934 75.3937,239.72 78.965,241.267 82.6553,242.696 86.3457,243.886 90.155,244.957 93.9644,245.791 97.7738,246.505 101.702,246.981 105.75,247.219 109.678,247.338 113.726,247.219 117.654,246.981 121.582,246.505 125.511,245.791 129.439,244.957 133.13,243.886 136.939,242.696 140.51,241.267 144.082,239.72 147.653,237.934 151.105,236.029 154.438,233.886 157.652,231.625 160.748,229.125 163.843,226.506 166.7,223.768 169.438,220.911 172.057,217.816 174.437,214.721 176.818,211.506 178.842,208.173 180.747,204.84 182.532,201.269 184.199,197.697 185.508,194.126 186.818,190.436 187.889,186.626 188.723,182.817 189.437,178.889 189.913,174.96 190.151,171.032 190.27,166.984 190.151,162.937 189.913,159.008 189.437,155.08 188.723,151.152 187.889,147.342 186.818,143.533 185.508,139.843 184.199,136.152 182.532,132.581 180.747,129.129 178.842,125.676 176.818,122.343 174.437,119.129 172.057,116.034 169.438,112.939 166.7,110.082 163.843,107.344 160.748,104.725 157.652,102.225 154.438,99.9631 151.105,97.8204 147.653,95.9157 144.082,94.13 140.51,92.5825 136.939,91.154 133.13,89.9635 129.439,88.8922 125.511,88.0589 121.582,87.3446 117.654,86.8684 113.726,86.6303 109.678,86.5113 105.512,86.6303 101.464,86.8684 97.4167,87.4636 93.4882,88.1779 89.6789,89.0112 85.8695,90.0826 82.0601,91.3921 78.4888,92.8206 74.9175,94.4872 71.4653,96.2728 68.0131,98.1775 64.7989,100.32 61.5847,102.463 "
   style="fill:#1c1c1c"
   transform="translate(-15.941089,-73.009189)" /><polygon
   id="_149499208"
   class="fil0"
   points="63.8466,223.173 61.1086,220.792 58.4896,218.292 55.9897,215.673 53.6089,212.935 51.3471,210.078 49.3233,207.102 47.4186,204.126 45.633,201.031 44.0854,197.935 42.6569,194.721 41.3474,191.388 40.2761,188.055 39.3237,184.603 38.6095,181.15 38.0142,177.698 37.5381,174.127 37.3,170.556 37.1809,166.984 37.3,163.413 37.5381,159.723 38.0142,156.27 38.6095,152.699 39.3237,149.247 40.2761,145.795 41.3474,142.462 42.6569,139.128 44.0854,135.914 45.633,132.819 47.4186,129.724 49.3233,126.748 51.3471,123.891 53.6089,121.034 55.9897,118.296 58.4896,115.677 61.1086,113.177 63.8466,110.796 66.7036,108.534 69.5606,106.511 72.5367,104.606 75.6318,102.82 78.846,101.273 82.0601,99.8441 85.2743,98.5346 88.7265,97.4632 92.0597,96.5109 95.512,95.7966 98.9642,95.2014 102.536,94.7253 106.107,94.4872 109.678,94.3681 113.249,94.4872 116.94,94.7253 120.511,95.2014 123.963,95.7966 127.416,96.5109 130.868,97.4632 134.201,98.5346 137.534,99.8441 140.748,101.273 143.962,102.82 147.058,104.606 150.034,106.511 152.891,108.534 155.748,110.677 158.486,113.058 161.105,115.558 163.605,118.177 165.985,120.915 168.128,123.772 170.152,126.748 172.057,129.724 173.842,132.819 175.509,135.914 176.937,139.128 178.128,142.462 179.318,145.795 180.271,149.247 180.985,152.699 181.58,156.27 182.056,159.723 182.294,163.413 182.413,166.984 182.294,170.556 182.056,174.127 181.58,177.698 180.985,181.15 180.271,184.603 179.318,188.055 178.128,191.388 176.937,194.721 175.509,197.935 173.842,201.031 172.057,204.126 170.152,207.102 168.128,210.078 165.985,212.935 163.605,215.673 161.105,218.292 158.486,220.792 155.748,223.173 152.891,225.315 150.034,227.339 147.058,229.244 143.962,231.029 140.748,232.696 137.534,234.125 134.201,235.315 130.868,236.505 127.416,237.458 123.963,238.172 120.511,238.767 116.94,239.243 113.249,239.481 109.678,239.601 106.107,239.481 102.536,239.243 98.9642,238.767 95.512,238.172 92.0597,237.458 88.6075,236.505 85.2743,235.315 81.9411,234.125 78.7269,232.696 75.6318,231.029 72.5367,229.244 69.5606,227.339 66.7036,225.315 "
   style="fill:#000000"
   transform="translate(-15.941089,-73.009189)" /><polygon
   id="_149499280"
   class="fil40"
   points="123.725,98.5346 116.821,97.4632 109.678,97.1061 102.536,97.4632 95.631,98.5346 88.9646,100.201 82.5363,102.582 76.4651,105.558 70.751,109.01 65.3941,113.058 60.3943,117.582 55.9897,122.581 51.9423,127.938 48.49,133.652 45.5139,139.843 43.1331,146.271 41.4665,152.937 40.3951,159.842 40.038,166.984 40.3951,174.127 41.4665,181.031 43.1331,187.698 45.5139,194.126 48.49,200.197 51.9423,205.911 55.9897,211.268 60.3943,216.268 65.3941,220.792 70.751,224.839 76.4651,228.291 82.5363,231.268 88.9646,233.648 95.631,235.315 102.536,236.386 109.678,236.743 116.821,236.386 123.725,235.315 130.392,233.648 136.82,231.268 143.01,228.291 148.724,224.839 154.081,220.792 159.081,216.268 163.605,211.268 167.652,205.911 171.104,200.197 174.08,194.126 176.461,187.698 178.128,181.031 179.199,174.127 179.556,166.984 179.199,159.842 178.128,152.937 176.461,146.271 174.08,139.843 171.104,133.652 167.652,127.938 163.605,122.581 159.081,117.582 154.081,113.058 148.724,109.01 143.01,105.558 136.82,102.582 130.392,100.201 "
   style="fill:#cecece"
   transform="translate(-15.941089,-73.009189)" /><polygon
   id="_149499928"
   class="fil43"
   points="114.083,131.271 113.845,134.962 110.035,134.724 110.273,131.033 "
   style="fill:#ffffff"
   transform="translate(-15.941089,-73.009189)" /><polygon
   id="_149500024"
   class="fil43"
   points="123.368,133.652 122.059,137.224 118.606,135.914 119.797,132.462 "
   style="fill:#ffffff"
   transform="translate(-15.941089,-73.009189)" /><polygon
   id="_149500096"
   class="fil43"
   points="131.582,138.414 129.439,141.509 126.344,139.366 128.487,136.271 "
   style="fill:#ffffff"
   transform="translate(-15.941089,-73.009189)" /><polygon
   id="_149500168"
   class="fil43"
   points="138.248,145.08 135.391,147.461 133.011,144.604 135.868,142.223 "
   style="fill:#ffffff"
   transform="translate(-15.941089,-73.009189)" /><polygon
   id="_149500240"
   class="fil43"
   points="143.01,153.294 139.677,154.842 138.01,151.509 141.344,149.842 "
   style="fill:#ffffff"
   transform="translate(-15.941089,-73.009189)" /><polygon
   id="_149500312"
   class="fil43"
   points="145.391,162.461 141.701,163.056 141.105,159.366 144.796,158.77 "
   style="fill:#ffffff"
   transform="translate(-15.941089,-73.009189)" /><polygon
   id="_149500384"
   class="fil43"
   points="145.391,171.984 141.582,171.627 141.939,167.937 145.748,168.175 "
   style="fill:#ffffff"
   transform="translate(-15.941089,-73.009189)" /><polygon
   id="_149500456"
   class="fil43"
   points="142.772,181.15 139.32,179.841 140.629,176.389 144.082,177.698 "
   style="fill:#ffffff"
   transform="translate(-15.941089,-73.009189)" /><polygon
   id="_149500528"
   class="fil43"
   points="137.891,189.245 134.915,187.103 137.058,184.007 140.153,186.15 "
   style="fill:#ffffff"
   transform="translate(-15.941089,-73.009189)" /><polygon
   id="_149500600"
   class="fil43"
   points="131.106,195.793 128.725,192.936 131.701,190.555 134.082,193.412 "
   style="fill:#ffffff"
   transform="translate(-15.941089,-73.009189)" /><polygon
   id="_149500672"
   class="fil43"
   points="122.892,200.435 121.344,196.983 124.678,195.436 126.225,198.888 "
   style="fill:#ffffff"
   transform="translate(-15.941089,-73.009189)" /><polygon
   id="_149500744"
   class="fil43"
   points="113.607,202.697 113.011,199.007 116.702,198.412 117.297,202.102 "
   style="fill:#ffffff"
   transform="translate(-15.941089,-73.009189)" /><polygon
   id="_149500816"
   class="fil43"
   points="104.202,202.459 104.559,198.769 108.25,199.126 107.892,202.816 "
   style="fill:#ffffff"
   transform="translate(-15.941089,-73.009189)" /><polygon
   id="_149500888"
   class="fil43"
   points="94.9168,199.721 96.3453,196.15 99.7975,197.578 98.488,201.031 "
   style="fill:#ffffff"
   transform="translate(-15.941089,-73.009189)" /><polygon
   id="_149500960"
   class="fil43"
   points="87.0599,194.721 89.2027,191.745 92.2978,193.888 90.036,196.983 "
   style="fill:#ffffff"
   transform="translate(-15.941089,-73.009189)" /><polygon
   id="_149501032"
   class="fil43"
   points="80.5126,187.817 83.4886,185.436 85.8695,188.412 82.8934,190.793 "
   style="fill:#ffffff"
   transform="translate(-15.941089,-73.009189)" /><polygon
   id="_149501104"
   class="fil43"
   points="76.108,179.603 79.5602,178.055 80.9887,181.389 77.5365,182.817 "
   style="fill:#ffffff"
   transform="translate(-15.941089,-73.009189)" /><polygon
   id="_149501176"
   class="fil43"
   points="73.9652,170.318 77.6555,169.722 78.2507,173.532 74.5604,174.008 "
   style="fill:#ffffff"
   transform="translate(-15.941089,-73.009189)" /><polygon
   id="_149501248"
   class="fil43"
   points="74.3223,160.794 78.1317,161.27 77.6555,164.961 73.9652,164.484 "
   style="fill:#ffffff"
   transform="translate(-15.941089,-73.009189)" /><polygon
   id="_149501320"
   class="fil43"
   points="77.2984,151.628 80.7506,153.056 79.3221,156.509 75.8699,155.08 "
   style="fill:#ffffff"
   transform="translate(-15.941089,-73.009189)" /><polygon
   id="_149501392"
   class="fil43"
   points="82.4172,143.652 85.3933,145.914 83.1315,148.89 80.1554,146.628 "
   style="fill:#ffffff"
   transform="translate(-15.941089,-73.009189)" /><polygon
   id="_149501464"
   class="fil43"
   points="89.4408,137.343 91.7026,140.319 88.7265,142.581 86.4647,139.604 "
   style="fill:#ffffff"
   transform="translate(-15.941089,-73.009189)" /><polygon
   id="_149501536"
   class="fil43"
   points="97.0595,133.295 98.488,136.747 95.1548,138.176 93.6073,134.843 "
   style="fill:#ffffff"
   transform="translate(-15.941089,-73.009189)" /><polygon
   id="_149501608"
   class="fil43"
   points="106.226,131.152 106.821,134.843 103.131,135.438 102.536,131.748 "
   style="fill:#ffffff"
   transform="translate(-15.941089,-73.009189)" /><polygon
   id="_149501680"
   class="fil0"
   points="70.632,127.224 63.2513,119.724 62.7752,120.2 62.18,120.796 61.7038,121.272 61.2276,121.867 68.6083,129.248 69.0844,128.772 69.6797,128.176 70.1558,127.7 "
   style="fill:#000000"
   transform="translate(-15.941089,-73.009189)" /><polygon
   id="_149501752"
   class="fil0"
   points="107.178,111.153 107.773,111.153 108.488,111.153 109.083,111.153 109.678,111.153 109.797,111.153 109.916,111.153 110.035,111.153 110.035,100.677 109.916,100.677 109.797,100.677 109.678,100.677 109.083,100.677 108.488,100.677 107.773,100.677 107.178,100.677 "
   style="fill:#000000"
   transform="translate(-15.941089,-73.009189)" /><polygon
   id="_149501824"
   class="fil0"
   points="176.104,167.818 176.104,167.461 176.104,166.984 176.104,166.746 176.104,166.389 176.104,166.151 176.104,165.913 165.509,165.913 165.628,166.151 165.628,166.389 165.628,166.746 165.628,166.984 165.628,167.461 165.628,167.818 165.509,168.294 165.509,168.77 175.985,168.77 176.104,168.294 "
   style="fill:#000000"
   transform="translate(-15.941089,-73.009189)" /><polygon
   id="_149501896"
   class="fil0"
   points="149.915,128.176 157.295,120.796 156.819,120.32 156.343,119.724 155.748,119.248 155.272,118.772 147.772,126.153 148.367,126.629 148.843,127.105 149.438,127.7 "
   style="fill:#000000"
   transform="translate(-15.941089,-73.009189)" /><polygon
   id="_149576352"
   class="fil0"
   points="43.4902,168.294 43.4902,168.77 53.966,168.77 53.966,168.294 53.966,167.818 53.966,167.461 53.966,166.984 53.966,166.746 53.966,166.389 53.966,166.151 53.966,165.913 43.4902,165.913 43.4902,166.151 43.4902,166.389 43.4902,166.746 43.4902,166.984 43.4902,167.461 43.4902,167.818 "
   style="fill:#000000"
   transform="translate(-15.941089,-73.009189)" /><polygon
   id="_149576424"
   class="fil0"
   points="147.415,208.054 154.914,215.554 155.391,215.078 155.867,214.482 156.462,214.006 156.938,213.53 149.557,206.03 149.081,206.507 148.486,207.102 148.01,207.578 "
   style="fill:#000000"
   transform="translate(-15.941089,-73.009189)" /><polygon
   id="_149576496"
   class="fil0"
   points="110.035,233.172 110.035,222.696 109.916,222.696 109.797,222.696 109.678,222.696 109.083,222.696 108.488,222.696 107.773,222.696 107.178,222.696 107.178,233.172 107.773,233.172 108.488,233.172 109.083,233.172 109.678,233.172 109.797,233.172 109.916,233.172 "
   style="fill:#000000"
   transform="translate(-15.941089,-73.009189)" /><polygon
   id="_149576568"
   class="fil0"
   points="68.9654,204.959 61.5847,212.34 62.0609,212.816 62.5371,213.411 63.1323,213.887 63.6085,214.482 70.9891,206.983 70.513,206.507 70.0368,206.03 69.4416,205.435 "
   style="fill:#000000"
   transform="translate(-15.941089,-73.009189)" /><polygon
   id="_149576640"
   class="fil19"
   points="85.0362,109.249 83.7267,106.034 83.4886,106.153 83.2505,106.153 82.8934,106.272 82.6553,106.392 84.0838,109.606 84.3219,109.487 84.56,109.368 84.7981,109.368 "
   style="fill:#3f3f3f"
   transform="translate(-15.941089,-73.009189)" /><polygon
   id="_149576712"
   class="fil19"
   points="96.1072,105.558 95.3929,102.225 95.1548,102.225 94.9168,102.344 94.5596,102.344 94.3215,102.463 95.0358,105.796 95.2739,105.796 95.631,105.677 95.8691,105.677 "
   style="fill:#3f3f3f"
   transform="translate(-15.941089,-73.009189)" /><polygon
   id="_149576784"
   class="fil19"
   points="48.0139,155.437 44.5616,154.723 44.5616,154.961 44.5616,155.199 44.4426,155.556 44.4426,155.794 47.8948,156.509 47.8948,156.27 48.0139,155.913 48.0139,155.675 "
   style="fill:#3f3f3f"
   transform="translate(-15.941089,-73.009189)" /><polygon
   id="_149576856"
   class="fil19"
   points="51.5851,143.295 48.371,141.985 48.2519,142.223 48.2519,142.462 48.1329,142.7 48.0139,142.938 51.228,144.247 51.3471,144.009 51.4661,143.771 51.4661,143.533 "
   style="fill:#3f3f3f"
   transform="translate(-15.941089,-73.009189)" /><polygon
   id="_149576928"
   class="fil19"
   points="56.9421,132.938 54.085,131.033 53.966,131.271 53.7279,131.51 53.6089,131.748 53.4898,131.986 56.3469,133.89 56.4659,133.652 56.704,133.414 56.823,133.176 "
   style="fill:#3f3f3f"
   transform="translate(-15.941089,-73.009189)" /><polygon
   id="_149577000"
   class="fil19"
   points="73.8462,115.439 71.8224,112.582 71.5843,112.701 71.4653,112.939 71.2272,113.058 70.9891,113.177 72.8938,116.153 73.1319,115.915 73.37,115.796 73.6081,115.558 "
   style="fill:#3f3f3f"
   transform="translate(-15.941089,-73.009189)" /><polygon
   id="_149577072"
   class="fil19"
   points="168.009,143.414 171.223,142.104 171.104,141.866 170.985,141.509 170.866,141.271 170.747,141.033 167.533,142.342 167.652,142.581 167.771,142.819 167.89,143.176 "
   style="fill:#3f3f3f"
   transform="translate(-15.941089,-73.009189)" /><polygon
   id="_149577144"
   class="fil19"
   points="120.868,105.082 121.463,101.63 121.225,101.63 120.987,101.511 120.63,101.511 120.392,101.511 119.797,104.963 120.035,104.963 120.392,104.963 120.63,105.082 "
   style="fill:#3f3f3f"
   transform="translate(-15.941089,-73.009189)" /><polygon
   id="_149577216"
   class="fil19"
   points="161.819,131.748 164.676,129.843 164.557,129.605 164.438,129.367 164.2,129.129 164.081,128.891 161.224,130.914 161.343,131.152 161.462,131.271 161.7,131.51 "
   style="fill:#3f3f3f"
   transform="translate(-15.941089,-73.009189)" /><polygon
   id="_149577288"
   class="fil19"
   points="171.461,154.961 174.795,154.247 174.795,154.009 174.795,153.652 174.676,153.413 174.676,153.175 171.223,153.89 171.223,154.128 171.342,154.366 171.342,154.723 "
   style="fill:#3f3f3f"
   transform="translate(-15.941089,-73.009189)" /><polygon
   id="_149577360"
   class="fil19"
   points="133.368,108.772 134.677,105.558 134.439,105.439 134.201,105.32 133.963,105.201 133.725,105.082 132.415,108.296 132.653,108.415 132.891,108.534 133.13,108.653 "
   style="fill:#3f3f3f"
   transform="translate(-15.941089,-73.009189)" /><polygon
   id="_149577432"
   class="fil19"
   points="143.962,114.248 145.867,111.391 145.629,111.272 145.391,111.034 145.153,110.915 144.915,110.796 143.01,113.653 143.248,113.772 143.486,114.01 143.724,114.129 "
   style="fill:#3f3f3f"
   transform="translate(-15.941089,-73.009189)" /><polygon
   id="_149577504"
   class="fil19"
   points="143.605,219.839 145.51,222.696 145.748,222.577 145.986,222.458 146.224,222.22 146.462,222.101 144.439,219.244 144.201,219.363 144.082,219.482 143.843,219.72 "
   style="fill:#3f3f3f"
   transform="translate(-15.941089,-73.009189)" /><polygon
   id="_149577576"
   class="fil19"
   points="132.058,225.672 133.368,228.887 133.606,228.768 133.844,228.649 134.082,228.649 134.32,228.53 133.011,225.315 132.772,225.434 132.534,225.434 132.296,225.553 "
   style="fill:#3f3f3f"
   transform="translate(-15.941089,-73.009189)" /><polygon
   id="_149577648"
   class="fil19"
   points="48.2519,179.484 44.7997,180.079 44.9187,180.317 44.9187,180.555 44.9187,180.912 45.0378,181.15 48.49,180.436 48.371,180.198 48.371,179.96 48.2519,179.722 "
   style="fill:#3f3f3f"
   transform="translate(-15.941089,-73.009189)" /><polygon
   id="_149577720"
   class="fil19"
   points="161.343,202.697 164.319,204.602 164.438,204.364 164.676,204.126 164.795,204.007 164.914,203.769 161.938,201.745 161.819,201.983 161.7,202.221 161.462,202.459 "
   style="fill:#3f3f3f"
   transform="translate(-15.941089,-73.009189)" /><polygon
   id="_149577792"
   class="fil19"
   points="167.176,192.221 170.509,193.65 170.628,193.412 170.747,193.055 170.747,192.817 170.866,192.579 167.652,191.269 167.533,191.507 167.414,191.745 167.295,191.983 "
   style="fill:#3f3f3f"
   transform="translate(-15.941089,-73.009189)" /><polygon
   id="_149577864"
   class="fil19"
   points="171.223,179.841 174.676,180.436 174.795,180.198 174.795,179.96 174.795,179.722 174.914,179.484 171.461,178.889 171.342,179.127 171.342,179.365 171.342,179.603 "
   style="fill:#3f3f3f"
   transform="translate(-15.941089,-73.009189)" /><polygon
   id="_149577936"
   class="fil19"
   points="120.63,228.768 121.344,232.22 121.582,232.101 121.94,232.101 122.178,232.101 122.416,231.982 121.701,228.53 121.463,228.649 121.225,228.649 120.868,228.768 "
   style="fill:#3f3f3f"
   transform="translate(-15.941089,-73.009189)" /><polygon
   id="_149578008"
   class="fil19"
   points="57.4182,201.507 54.5612,203.531 54.6803,203.769 54.7993,203.888 55.0374,204.126 55.1564,204.364 58.0135,202.459 57.8944,202.221 57.7754,201.983 57.5373,201.745 "
   style="fill:#3f3f3f"
   transform="translate(-15.941089,-73.009189)" /><polygon
   id="_149578080"
   class="fil19"
   points="51.5851,190.436 48.2519,191.745 48.371,191.983 48.49,192.221 48.6091,192.46 48.7281,192.698 51.9423,191.388 51.8232,191.15 51.8232,190.912 51.7042,190.674 "
   style="fill:#3f3f3f"
   transform="translate(-15.941089,-73.009189)" /><polygon
   id="_149578152"
   class="fil19"
   points="74.2033,218.649 72.2986,221.625 72.5367,221.744 72.7748,221.863 73.0129,222.101 73.2509,222.22 75.1556,219.244 74.9175,219.125 74.6795,219.006 74.4414,218.768 "
   style="fill:#3f3f3f"
   transform="translate(-15.941089,-73.009189)" /><polygon
   id="_149578224"
   class="fil19"
   points="96.3453,228.291 95.631,231.744 95.8691,231.863 96.2262,231.863 96.4643,231.863 96.7024,231.982 97.4167,228.53 97.1786,228.41 96.9405,228.41 96.5834,228.41 "
   style="fill:#3f3f3f"
   transform="translate(-15.941089,-73.009189)" /><polygon
   id="_149578296"
   class="fil19"
   points="84.3219,224.363 83.0125,227.577 83.2505,227.696 83.6077,227.815 83.8458,227.934 84.0838,228.053 85.3933,224.839 85.1552,224.72 84.9171,224.601 84.56,224.482 "
   style="fill:#3f3f3f"
   transform="translate(-15.941089,-73.009189)" /><polygon
   id="_149578368"
   class="fil6"
   points="109.44,173.77 110.869,173.532 112.297,172.936 113.607,172.103 114.678,171.032 115.392,169.841 115.987,168.532 116.345,167.103 116.345,165.675 116.106,164.246 115.511,162.818 114.678,161.508 113.607,160.437 112.416,159.723 111.107,159.128 109.678,158.77 108.25,158.77 106.821,159.008 105.393,159.604 104.083,160.437 103.012,161.508 102.297,162.699 101.702,164.008 101.345,165.437 101.345,166.865 101.583,168.294 102.178,169.722 103.012,171.032 104.083,172.103 105.274,172.817 106.583,173.413 108.012,173.77 "
   style="fill:#3a3a3a"
   transform="translate(-15.941089,-73.009189)" /><polygon
   id="_149578440"
   class="fil6"
   points="109.559,168.651 131.225,153.532 106.94,162.58 106.94,163.651 "
   style="fill:#3a3a3a"
   transform="translate(-15.941089,-73.009189)" /><polygon
   id="_149578512"
   class="fil0"
   points="111.345,162.699 110.869,162.461 110.273,162.223 109.797,162.104 109.202,162.104 80.9887,113.296 105.035,164.484 104.678,165.437 104.559,166.508 104.678,167.461 105.035,168.532 105.512,169.246 106.107,169.841 106.821,170.318 107.654,170.675 108.488,170.913 109.321,170.913 110.154,170.794 110.988,170.437 112.297,169.246 113.13,167.818 113.368,166.151 112.892,164.484 112.535,163.889 112.178,163.413 111.821,163.056 "
   style="fill:#000000"
   transform="translate(-15.941089,-73.009189)" /><polygon
   id="_149578584"
   class="fil13"
   points="108.369,166.746 108.607,166.865 108.845,166.984 109.083,166.865 109.321,166.746 109.44,166.508 109.559,166.27 109.44,165.913 109.321,165.675 109.083,165.556 108.845,165.556 108.607,165.556 108.369,165.675 108.25,165.913 108.131,166.27 108.25,166.508 "
   style="fill:#7f7f7f"
   transform="translate(-15.941089,-73.009189)" /><polygon
   id="_149578728"
   class="fil13"
   points="175.271,166.389 175.271,166.151 175.271,165.913 165.866,165.913 165.866,166.627 165.866,167.341 165.866,168.056 165.747,168.77 175.271,168.77 175.271,168.294 175.271,167.818 175.271,167.341 175.271,166.865 175.271,166.627 "
   style="fill:#7f7f7f"
   transform="translate(-15.941089,-73.009189)" /><polygon
   id="_149578800"
   class="fil13"
   points="155.033,118.891 151.105,122.819 151.581,123.415 152.057,124.01 152.415,124.605 152.891,125.2 157.057,120.915 156.581,120.439 156.105,119.843 155.51,119.367 "
   style="fill:#7f7f7f"
   transform="translate(-15.941089,-73.009189)" /><polygon
   id="_149578872"
   class="fil13"
   points="156.7,213.173 150.748,207.34 150.272,207.816 149.796,208.411 149.319,208.887 148.843,209.483 154.557,215.197 155.153,214.721 155.629,214.244 156.224,213.649 "
   style="fill:#7f7f7f"
   transform="translate(-15.941089,-73.009189)" /><polygon
   id="_149578944"
   class="fil13"
   points="110.035,233.172 110.035,231.148 109.321,231.268 108.607,231.387 107.892,231.506 107.178,231.625 107.178,233.172 107.773,233.172 108.488,233.172 109.083,233.172 109.678,233.172 109.797,233.172 109.916,233.172 "
   style="fill:#7f7f7f"
   transform="translate(-15.941089,-73.009189)" />
</svg>